<svg width="16" height="17" viewBox="0 0 16 17" fill="none" xmlns="http://www.w3.org/2000/svg">
<g clip-path="url(#clip0)">
<path d="M13.8191 5.35889H7.27361C6.03725 5.35889 5.0918 6.3541 5.0918 7.65554V14.5455C5.0918 15.8469 6.03725 16.8421 7.27361 16.8421H13.8191C15.0554 16.8421 16.0009 15.8469 16.0009 14.5455V7.65554C16.0009 6.3541 15.0554 5.35889 13.8191 5.35889ZM14.5463 14.5455C14.5463 15.0048 14.2554 15.311 13.8191 15.311H7.27361C6.83725 15.311 6.54634 15.0048 6.54634 14.5455V7.65554C6.54634 7.19621 6.83725 6.88999 7.27361 6.88999H13.8191C14.2554 6.88999 14.5463 7.19621 14.5463 7.65554V14.5455Z" fill="#526BE3"/>
<path d="M2.90909 9.95215H2.18182C1.74545 9.95215 1.45455 9.64593 1.45455 9.1866V2.29665C1.45455 1.83732 1.74545 1.5311 2.18182 1.5311H8.72727C9.16364 1.5311 9.45455 1.83732 9.45455 2.29665V3.0622C9.45455 3.52153 9.74545 3.82775 10.1818 3.82775C10.6182 3.82775 10.9091 3.52153 10.9091 3.0622V2.29665C10.9091 0.995215 9.96364 0 8.72727 0H2.18182C0.945454 0 0 0.995215 0 2.29665V9.1866C0 10.488 0.945454 11.4833 2.18182 11.4833H2.90909C3.34545 11.4833 3.63636 11.177 3.63636 10.7177C3.63636 10.2584 3.34545 9.95215 2.90909 9.95215Z" fill="#526BE3"/>
</g>
<defs>
<clipPath id="clip0">
<rect width="16" height="16.8421" fill="white"/>
</clipPath>
</defs>
</svg>
