<svg width="72" height="72" viewBox="0 0 72 72" fill="none" xmlns="http://www.w3.org/2000/svg">
<circle cx="36" cy="36" r="35.5" stroke="#526BE3"/>
<path d="M18.5 45H36V46.5C36 46.6326 36.0527 46.7598 36.1464 46.8536C36.2402 46.9473 36.3674 47 36.5 47C36.6326 47 36.7598 46.9473 36.8536 46.8536C36.9473 46.7598 37 46.6326 37 46.5V45H54.5C55.327 45 56 44.327 56 43.5V21.5C56 20.673 55.327 20 54.5 20H18.5C17.673 20 17 20.673 17 21.5V43.5C17 44.327 17.673 45 18.5 45ZM18 21.5C18 21.3674 18.0527 21.2402 18.1464 21.1464C18.2402 21.0527 18.3674 21 18.5 21H54.5C54.6326 21 54.7598 21.0527 54.8536 21.1464C54.9473 21.2402 55 21.3674 55 21.5V43.5C55 43.6326 54.9473 43.7598 54.8536 43.8536C54.7598 43.9473 54.6326 44 54.5 44H18.5C18.3674 44 18.2402 43.9473 18.1464 43.8536C18.0527 43.7598 18 43.6326 18 43.5V21.5Z" fill="#526BE3"/>
<path d="M20.5 42H52.5C52.6326 42 52.7598 41.9473 52.8536 41.8536C52.9473 41.7598 53 41.6326 53 41.5V23.5C53 23.3674 52.9473 23.2402 52.8536 23.1464C52.7598 23.0527 52.6326 23 52.5 23H20.5C20.3674 23 20.2402 23.0527 20.1464 23.1464C20.0527 23.2402 20 23.3674 20 23.5V41.5C20 41.6326 20.0527 41.7598 20.1464 41.8536C20.2402 41.9473 20.3674 42 20.5 42ZM21 24H52V41H21V24Z" fill="#526BE3"/>
<path d="M31 48C29.86 48 29 48.86 29 50V51.5C29 51.6326 29.0527 51.7598 29.1464 51.8536C29.2402 51.9473 29.3674 52 29.5 52H43.5C43.6326 52 43.7598 51.9473 43.8536 51.8536C43.9473 51.7598 44 51.6326 44 51.5V50.075C44 48.912 43.122 48 42 48H31ZM43 50.075V51H30V50C30 49.411 30.411 49 31 49H42C42.57 49 43 49.462 43 50.075Z" fill="#526BE3"/>
</svg>
