<svg width="72" height="72" viewBox="0 0 72 72" fill="none" xmlns="http://www.w3.org/2000/svg">
<circle cx="36" cy="36" r="35.5" stroke="#526BE3"/>
<path d="M18.4998 51.9829C18.6279 52.0163 18.7639 51.9979 18.8785 51.9316C18.9931 51.8653 19.0769 51.7566 19.1118 51.6289C20.1418 47.7859 24.3278 46.7899 26.8298 46.1939C27.4568 46.0449 27.9518 45.9269 28.2738 45.7879C31.1238 44.5509 32.0528 42.5609 32.3308 41.1089C32.3474 41.0225 32.3408 40.9333 32.3118 40.8503C32.2829 40.7672 32.2325 40.6933 32.1658 40.6359C30.6818 39.3549 29.4298 37.4319 28.6398 35.2199C28.6175 35.1565 28.5825 35.0983 28.5368 35.0489C27.4918 33.9129 26.8918 32.7119 26.8918 31.7549C26.8918 31.1959 27.1028 30.8209 27.5778 30.5379C27.649 30.4954 27.7084 30.4358 27.7508 30.3646C27.7933 30.2934 27.8173 30.2128 27.8208 30.1299C28.0418 25.0359 31.6698 21.0259 36.1198 20.9999L36.2268 21.0069C40.6988 21.0689 44.3038 25.1649 44.4328 30.3309C44.4346 30.4015 44.4514 30.471 44.4821 30.5346C44.5128 30.5982 44.5567 30.6546 44.6108 30.6999C44.9238 30.9649 45.0698 31.3009 45.0698 31.7569C45.0698 32.5579 44.6428 33.5429 43.8688 34.5289C43.8319 34.5764 43.8035 34.6298 43.7848 34.6869C42.9848 37.2229 41.5488 39.4619 39.8468 40.8319C39.7763 40.8889 39.7225 40.9638 39.6912 41.0489C39.6599 41.1339 39.6521 41.2259 39.6688 41.3149C39.9468 42.7659 40.8758 44.7549 43.7258 45.9939C44.0628 46.1399 44.5858 46.2539 45.2488 46.3969C47.7258 46.9329 51.8708 47.8319 52.8878 51.6289C52.9049 51.6924 52.9343 51.7518 52.9743 51.8039C53.0144 51.8559 53.0643 51.8996 53.1212 51.9324C53.1781 51.9652 53.241 51.9864 53.3061 51.9949C53.3712 52.0034 53.4374 51.999 53.5008 51.9819C53.5642 51.9649 53.6237 51.9355 53.6758 51.8954C53.7278 51.8554 53.7715 51.8055 53.8043 51.7485C53.8371 51.6916 53.8583 51.6288 53.8668 51.5637C53.8753 51.4985 53.8709 51.4324 53.8538 51.3689C52.6788 46.9819 47.9828 45.9649 45.4608 45.4189C44.8758 45.2919 44.3708 45.1829 44.1248 45.0749C42.2648 44.2669 41.1188 43.0359 40.7138 41.4099C42.4408 39.9269 43.8858 37.6389 44.7118 35.0729C45.5888 33.9329 46.0708 32.7589 46.0708 31.7559C46.0708 31.0869 45.8548 30.5289 45.4268 30.0929C45.1888 24.4889 41.1898 20.0759 36.2268 20.0049L36.0778 20.0029C31.2048 20.0289 27.1888 24.3259 26.8378 29.8329C26.2118 30.2929 25.8938 30.9379 25.8938 31.7569C25.8938 32.9399 26.5628 34.3549 27.7338 35.6529C28.5428 37.8759 29.7968 39.8289 31.2898 41.1959C30.8868 42.8279 29.7398 44.0629 27.8758 44.8719C27.6348 44.9769 27.1548 45.0919 26.5988 45.2239C24.0578 45.8279 19.3298 46.9529 18.1458 51.3709C18.1116 51.499 18.1297 51.6355 18.1961 51.7502C18.2625 51.865 18.3717 51.9487 18.4998 51.9829Z" fill="#526BE3"/>
</svg>
