<svg width="12" height="12" viewBox="0 0 12 12" fill="none" xmlns="http://www.w3.org/2000/svg">
<path d="M4.00421 11C3.87281 11.0007 3.74256 10.9756 3.62091 10.9259C3.49926 10.8762 3.38862 10.803 3.29533 10.7104C3.20175 10.6176 3.12747 10.5072 3.07679 10.3855C3.0261 10.2639 3 10.1334 3 10.0016C3 9.86976 3.0261 9.73926 3.07679 9.61759C3.12747 9.49593 3.20175 9.3855 3.29533 9.29268L6.60011 6.00788L3.42513 2.7031C3.23917 2.51604 3.13479 2.26299 3.13479 1.99922C3.13479 1.73545 3.23917 1.4824 3.42513 1.29533C3.51794 1.20175 3.62837 1.12747 3.75004 1.07679C3.8717 1.0261 4.0022 1 4.134 1C4.26581 1 4.39631 1.0261 4.51797 1.07679C4.63964 1.12747 4.75007 1.20175 4.84288 1.29533L8.69679 5.28901C8.87973 5.47565 8.98219 5.72657 8.98219 5.98791C8.98219 6.24925 8.87973 6.50017 8.69679 6.6868L4.7031 10.6805C4.61349 10.7773 4.50559 10.8553 4.38563 10.9102C4.26567 10.965 4.13603 10.9955 4.00421 11Z" fill="#526BE3"/>
</svg>
