<svg width="72" height="72" viewBox="0 0 72 72" fill="none" xmlns="http://www.w3.org/2000/svg">
<circle cx="36" cy="36" r="35.5" stroke="#526BE3"/>
<path d="M49.5096 27.5C49.6422 27.5 49.7694 27.4473 49.8632 27.3535C49.9569 27.2597 50.0096 27.1326 50.0096 27V25.335C50.0091 24.9007 49.8363 24.4844 49.5293 24.1773C49.2222 23.8702 48.8059 23.6975 48.3716 23.697H45.6846L45.0716 21.888C45.0299 21.7649 44.942 21.6629 44.8265 21.6036C44.711 21.5442 44.5769 21.5322 44.4526 21.57L29.8996 25.994C29.7791 26.0379 29.6801 26.1264 29.6229 26.2411C29.5657 26.3559 29.5547 26.4882 29.5921 26.6108C29.6295 26.7335 29.7126 26.8371 29.8241 26.9004C29.9356 26.9636 30.0671 26.9817 30.1916 26.951L44.2806 22.667L45.6236 26.632C45.6662 26.7575 45.7569 26.8611 45.8758 26.9198C45.9947 26.9785 46.132 26.9875 46.2576 26.945C46.3832 26.9024 46.4867 26.8117 46.5454 26.6928C46.6041 26.5739 46.6132 26.4365 46.5706 26.311L46.0236 24.696H48.3726C48.7246 24.696 49.0106 24.982 49.0106 25.334V27C49.0096 27.276 49.2336 27.5 49.5096 27.5Z" fill="#526BE3"/>
<path d="M53.5 35.0001C53.3674 35.0001 53.2402 35.0527 53.1464 35.1465C53.0527 35.2403 53 35.3674 53 35.5001C53 35.6327 53.0527 35.7598 53.1464 35.8536C53.2402 35.9474 53.3674 36.0001 53.5 36.0001C53.851 36.0001 54 36.1491 54 36.5001V42.5001C54 42.8511 53.851 43.0001 53.5 43.0001H45.5C45.149 43.0001 45 42.8511 45 42.5001V37.5001C45 37.1491 45.149 37.0001 45.5 37.0001H51.5C51.6326 37.0001 51.7598 36.9474 51.8536 36.8536C51.9473 36.7598 52 36.6327 52 36.5001V30.5001C52 29.5891 51.411 29.0001 50.5 29.0001H20C18.767 29.0001 18 28.2331 18 27.0001C18 25.7671 18.767 25.0001 20 25.0001H25.076L22.05 25.9981C21.9854 26.0167 21.9252 26.0482 21.873 26.0906C21.8208 26.133 21.7778 26.1856 21.7464 26.2451C21.715 26.3045 21.6959 26.3697 21.6903 26.4367C21.6847 26.5038 21.6926 26.5712 21.7137 26.6351C21.7348 26.699 21.7685 26.7579 21.8129 26.8084C21.8573 26.859 21.9114 26.9 21.972 26.9292C22.0326 26.9583 22.0985 26.9749 22.1657 26.978C22.2329 26.981 22.3 26.9705 22.363 26.9471L40.482 20.9741C40.5444 20.9534 40.6021 20.9207 40.6518 20.8778C40.7016 20.8349 40.7424 20.7826 40.7719 20.7239C40.8014 20.6652 40.8191 20.6013 40.8239 20.5358C40.8287 20.4703 40.8206 20.4044 40.8 20.3421C40.7794 20.2797 40.7467 20.222 40.7038 20.1722C40.6608 20.1225 40.6085 20.0817 40.5499 20.0522C40.4912 20.0226 40.4272 20.005 40.3617 20.0001C40.2962 19.9953 40.2304 20.0034 40.168 20.0241L28.068 24.0141C28.045 24.0101 28.024 24.0001 28 24.0001H20C18.206 24.0001 17 25.2061 17 27.0001V49.0001C17 50.7941 18.206 52.0001 20 52.0001H50.5C51.411 52.0001 52 51.4111 52 50.5001V45.5001C52 45.3674 51.9473 45.2403 51.8536 45.1465C51.7598 45.0527 51.6326 45.0001 51.5 45.0001C51.3674 45.0001 51.2402 45.0527 51.1464 45.1465C51.0527 45.2403 51 45.3674 51 45.5001V50.5001C51 50.8511 50.851 51.0001 50.5 51.0001H20C18.767 51.0001 18 50.2331 18 49.0001V29.3121C18.513 29.7451 19.192 30.0001 20 30.0001H50.5C50.851 30.0001 51 30.1491 51 30.5001V36.0001H45.5C44.589 36.0001 44 36.5891 44 37.5001V42.5001C44 43.4111 44.589 44.0001 45.5 44.0001H53.5C54.411 44.0001 55 43.4111 55 42.5001V36.5001C55 35.5891 54.411 35.0001 53.5 35.0001Z" fill="#526BE3"/>
<path d="M49 41C49.5523 41 50 40.5523 50 40C50 39.4477 49.5523 39 49 39C48.4477 39 48 39.4477 48 40C48 40.5523 48.4477 41 49 41Z" fill="#526BE3"/>
</svg>
