<svg width="72" height="72" viewBox="0 0 72 72" fill="none" xmlns="http://www.w3.org/2000/svg">
<circle cx="36" cy="36" r="35.5" stroke="#526BE3"/>
<path d="M20.512 48H38.5C39.327 48 40 47.327 40 46.5V27.5C40 27.477 39.99 27.457 39.987 27.435C39.9842 27.414 39.9799 27.3933 39.974 27.373C39.9544 27.2878 39.9123 27.2094 39.852 27.146L32.853 20.147C32.7737 20.0721 32.6723 20.0247 32.564 20.012C32.543 20.01 32.523 20 32.5 20H20.506C19.676 20 19 20.673 19 21.5V46.5C19 47.327 19.678 48 20.512 48ZM33 21.707L38.293 27H33.5C33.3674 27 33.2402 26.9473 33.1464 26.8536C33.0527 26.7598 33 26.6326 33 26.5V21.707ZM20 21.5C20 21.224 20.227 21 20.506 21H32V26.5C32 27.327 32.673 28 33.5 28H39V46.5C39 46.6326 38.9473 46.7598 38.8536 46.8536C38.7598 46.9473 38.6326 47 38.5 47H20.512C20.4455 47.0008 20.3796 46.9885 20.3179 46.9638C20.2562 46.9391 20.2 46.9025 20.1524 46.856C20.1049 46.8096 20.067 46.7543 20.0408 46.6932C20.0146 46.6321 20.0008 46.5665 20 46.5V21.5Z" fill="#526BE3"/>
<path d="M23.5 32H35.5C35.6326 32 35.7598 31.9473 35.8536 31.8536C35.9473 31.7598 36 31.6326 36 31.5C36 31.3674 35.9473 31.2402 35.8536 31.1464C35.7598 31.0527 35.6326 31 35.5 31H23.5C23.3674 31 23.2402 31.0527 23.1464 31.1464C23.0527 31.2402 23 31.3674 23 31.5C23 31.6326 23.0527 31.7598 23.1464 31.8536C23.2402 31.9473 23.3674 32 23.5 32Z" fill="#526BE3"/>
<path d="M23.5 36H35.5C35.6326 36 35.7598 35.9473 35.8536 35.8536C35.9473 35.7598 36 35.6326 36 35.5C36 35.3674 35.9473 35.2402 35.8536 35.1464C35.7598 35.0527 35.6326 35 35.5 35H23.5C23.3674 35 23.2402 35.0527 23.1464 35.1464C23.0527 35.2402 23 35.3674 23 35.5C23 35.6326 23.0527 35.7598 23.1464 35.8536C23.2402 35.9473 23.3674 36 23.5 36Z" fill="#526BE3"/>
<path d="M23.5 28H28.5C28.6326 28 28.7598 27.9473 28.8536 27.8536C28.9473 27.7598 29 27.6326 29 27.5C29 27.3674 28.9473 27.2402 28.8536 27.1464C28.7598 27.0527 28.6326 27 28.5 27H23.5C23.3674 27 23.2402 27.0527 23.1464 27.1464C23.0527 27.2402 23 27.3674 23 27.5C23 27.6326 23.0527 27.7598 23.1464 27.8536C23.2402 27.9473 23.3674 28 23.5 28Z" fill="#526BE3"/>
<path d="M23.5 40H35.5C35.6326 40 35.7598 39.9473 35.8536 39.8536C35.9473 39.7598 36 39.6326 36 39.5C36 39.3674 35.9473 39.2402 35.8536 39.1464C35.7598 39.0527 35.6326 39 35.5 39H23.5C23.3674 39 23.2402 39.0527 23.1464 39.1464C23.0527 39.2402 23 39.3674 23 39.5C23 39.6326 23.0527 39.7598 23.1464 39.8536C23.2402 39.9473 23.3674 40 23.5 40Z" fill="#526BE3"/>
<path d="M23.5 44H35.5C35.6326 44 35.7598 43.9473 35.8536 43.8536C35.9473 43.7598 36 43.6326 36 43.5C36 43.3674 35.9473 43.2402 35.8536 43.1464C35.7598 43.0527 35.6326 43 35.5 43H23.5C23.3674 43 23.2402 43.0527 23.1464 43.1464C23.0527 43.2402 23 43.3674 23 43.5C23 43.6326 23.0527 43.7598 23.1464 43.8536C23.2402 43.9473 23.3674 44 23.5 44Z" fill="#526BE3"/>
<path d="M40.5 25H45V30.5C45 31.327 45.673 32 46.5 32H52V50.5C52 50.6326 51.9473 50.7598 51.8536 50.8536C51.7598 50.9473 51.6326 51 51.5 51H33.512C33.4455 51.0008 33.3796 50.9885 33.3179 50.9638C33.2562 50.9391 33.2 50.9025 33.1524 50.856C33.1049 50.8096 33.067 50.7543 33.0408 50.6932C33.0146 50.6321 33.0008 50.5665 33 50.5V49.5C33 49.3674 32.9473 49.2402 32.8536 49.1464C32.7598 49.0527 32.6326 49 32.5 49C32.3674 49 32.2402 49.0527 32.1464 49.1464C32.0527 49.2402 32 49.3674 32 49.5V50.5C32 51.327 32.678 52 33.512 52H51.5C52.327 52 53 51.327 53 50.5V31.5C53 31.477 52.99 31.457 52.987 31.435C52.9842 31.414 52.9799 31.3933 52.974 31.373C52.9544 31.2878 52.9123 31.2094 52.852 31.146L45.853 24.147C45.7742 24.0715 45.6725 24.0243 45.564 24.013C45.543 24.01 45.523 24 45.5 24H40.5C40.3674 24 40.2402 24.0527 40.1464 24.1464C40.0527 24.2402 40 24.3674 40 24.5C40 24.6326 40.0527 24.7598 40.1464 24.8536C40.2402 24.9473 40.3674 25 40.5 25ZM46.5 31C46.3674 31 46.2402 30.9473 46.1464 30.8536C46.0527 30.7598 46 30.6326 46 30.5V25.707L51.293 31H46.5Z" fill="#526BE3"/>
<path d="M42.5 36H48.5C48.6326 36 48.7598 35.9473 48.8536 35.8536C48.9473 35.7598 49 35.6326 49 35.5C49 35.3674 48.9473 35.2402 48.8536 35.1464C48.7598 35.0527 48.6326 35 48.5 35H42.5C42.3674 35 42.2402 35.0527 42.1464 35.1464C42.0527 35.2402 42 35.3674 42 35.5C42 35.6326 42.0527 35.7598 42.1464 35.8536C42.2402 35.9473 42.3674 36 42.5 36Z" fill="#526BE3"/>
<path d="M42.5 40H48.5C48.6326 40 48.7598 39.9473 48.8536 39.8536C48.9473 39.7598 49 39.6326 49 39.5C49 39.3674 48.9473 39.2402 48.8536 39.1464C48.7598 39.0527 48.6326 39 48.5 39H42.5C42.3674 39 42.2402 39.0527 42.1464 39.1464C42.0527 39.2402 42 39.3674 42 39.5C42 39.6326 42.0527 39.7598 42.1464 39.8536C42.2402 39.9473 42.3674 40 42.5 40Z" fill="#526BE3"/>
<path d="M42.5 44H48.5C48.6326 44 48.7598 43.9473 48.8536 43.8536C48.9473 43.7598 49 43.6326 49 43.5C49 43.3674 48.9473 43.2402 48.8536 43.1464C48.7598 43.0527 48.6326 43 48.5 43H42.5C42.3674 43 42.2402 43.0527 42.1464 43.1464C42.0527 43.2402 42 43.3674 42 43.5C42 43.6326 42.0527 43.7598 42.1464 43.8536C42.2402 43.9473 42.3674 44 42.5 44Z" fill="#526BE3"/>
<path d="M42.5 48H48.5C48.6326 48 48.7598 47.9473 48.8536 47.8536C48.9473 47.7598 49 47.6326 49 47.5C49 47.3674 48.9473 47.2402 48.8536 47.1464C48.7598 47.0527 48.6326 47 48.5 47H42.5C42.3674 47 42.2402 47.0527 42.1464 47.1464C42.0527 47.2402 42 47.3674 42 47.5C42 47.6326 42.0527 47.7598 42.1464 47.8536C42.2402 47.9473 42.3674 48 42.5 48Z" fill="#526BE3"/>
</svg>
