<svg width="72" height="72" viewBox="0 0 72 72" fill="none" xmlns="http://www.w3.org/2000/svg">
<circle cx="36" cy="36" r="35.5" stroke="#526BE3"/>
<path d="M44 30.5V50.5C44 50.676 44.036 50.843 44.092 51H40.908C40.964 50.843 41 50.676 41 50.5V21.5C41 20.673 40.327 20 39.5 20H32.5C31.673 20 31 20.673 31 21.5V50.5C31 50.676 31.036 50.843 31.092 51H27.908C27.964 50.843 28 50.676 28 50.5V39.5C28 38.673 27.327 38 26.5 38H19.5C18.673 38 18 38.673 18 39.5V50.5C18 51.327 18.673 52 19.5 52H52.5C53.327 52 54 51.327 54 50.5V30.5C54 29.673 53.327 29 52.5 29H45.5C44.673 29 44 29.673 44 30.5ZM23 51H19.5C19.3674 51 19.2402 50.9473 19.1464 50.8536C19.0527 50.7598 19 50.6326 19 50.5V39.5C19 39.3674 19.0527 39.2402 19.1464 39.1464C19.2402 39.0527 19.3674 39 19.5 39H26.5C26.6326 39 26.7598 39.0527 26.8536 39.1464C26.9473 39.2402 27 39.3674 27 39.5V50.5C27 50.6326 26.9473 50.7598 26.8536 50.8536C26.7598 50.9473 26.6326 51 26.5 51H23ZM32.5 51C32.3674 51 32.2402 50.9473 32.1464 50.8536C32.0527 50.7598 32 50.6326 32 50.5V21.5C32 21.3674 32.0527 21.2402 32.1464 21.1464C32.2402 21.0527 32.3674 21 32.5 21H39.5C39.6326 21 39.7598 21.0527 39.8536 21.1464C39.9473 21.2402 40 21.3674 40 21.5V50.5C40 50.6326 39.9473 50.7598 39.8536 50.8536C39.7598 50.9473 39.6326 51 39.5 51H32.5ZM53 30.5V50.5C53 50.6326 52.9473 50.7598 52.8536 50.8536C52.7598 50.9473 52.6326 51 52.5 51H45.5C45.3674 51 45.2402 50.9473 45.1464 50.8536C45.0527 50.7598 45 50.6326 45 50.5V30.5C45 30.3674 45.0527 30.2402 45.1464 30.1464C45.2402 30.0527 45.3674 30 45.5 30H52.5C52.6326 30 52.7598 30.0527 52.8536 30.1464C52.9473 30.2402 53 30.3674 53 30.5Z" fill="#526BE3"/>
</svg>
