<svg width="72" height="72" viewBox="0 0 72 72" fill="none" xmlns="http://www.w3.org/2000/svg">
<circle cx="36" cy="36" r="35.5" fill="#2D3390" fill-opacity="0.02" stroke="#526BE3"/>
<path d="M46.7378 23.9746H51.6068C51.7394 23.9746 51.8666 23.9219 51.9603 23.8282C52.0541 23.7344 52.1068 23.6072 52.1068 23.4746C52.1068 23.342 52.0541 23.2148 51.9603 23.1211C51.8666 23.0273 51.7394 22.9746 51.6068 22.9746H45.6068C45.4742 22.9746 45.347 23.0273 45.2532 23.1211C45.1595 23.2148 45.1068 23.342 45.1068 23.4746V29.4746C45.1068 29.6072 45.1595 29.7344 45.2532 29.8282C45.347 29.9219 45.4742 29.9746 45.6068 29.9746C45.7394 29.9746 45.8666 29.9219 45.9603 29.8282C46.0541 29.7344 46.1068 29.6072 46.1068 29.4746V24.7576L46.7178 25.3686C49.5508 28.2016 51.1118 31.9686 51.1118 35.9746C51.1118 39.9806 49.5508 43.7476 46.7178 46.5806C44.6582 48.6397 42.0441 50.0551 39.194 50.6544C36.344 51.2536 33.3812 51.0109 30.6668 49.9556C30.5433 49.9076 30.4058 49.9106 30.2846 49.964C30.1634 50.0173 30.0683 50.1167 30.0203 50.2401C29.9723 50.3636 29.9753 50.501 30.0286 50.6223C30.082 50.7435 30.1813 50.8386 30.3048 50.8866C33.2 52.0125 36.3602 52.2716 39.4001 51.6323C42.44 50.9931 45.2282 49.4831 47.4248 47.2866C50.4468 44.2656 52.1118 40.2466 52.1118 35.9736C52.1118 31.7006 50.4468 27.6826 47.4248 24.6616L46.7378 23.9746Z" fill="#526BE3"/>
<path d="M26.607 41.9747C26.4744 41.9747 26.3472 42.0274 26.2534 42.1211C26.1597 42.2149 26.107 42.3421 26.107 42.4747V47.3147L25.394 46.6017C22.561 43.7687 21 40.0017 21 35.9957C21 31.9897 22.561 28.2217 25.394 25.3887C27.428 23.3606 30.0003 21.9573 32.8066 21.3449C35.6129 20.7324 38.5359 20.9364 41.23 21.9327C41.3524 21.9706 41.4846 21.9601 41.5995 21.9035C41.7144 21.8469 41.8032 21.7484 41.8478 21.6283C41.8924 21.5083 41.8892 21.3757 41.839 21.2578C41.7889 21.14 41.6955 21.0458 41.578 20.9947C38.7043 19.9329 35.5867 19.7158 32.5936 20.3692C29.6004 21.0225 26.8569 22.519 24.687 24.6817C21.665 27.7027 20 31.7217 20 35.9947C20 40.2677 21.665 44.2867 24.687 47.3077L25.353 47.9747H20.607C20.4744 47.9747 20.3472 48.0274 20.2534 48.1211C20.1597 48.2149 20.107 48.3421 20.107 48.4747C20.107 48.6073 20.1597 48.7345 20.2534 48.8283C20.3472 48.922 20.4744 48.9747 20.607 48.9747H26.463C26.503 48.9847 26.839 48.9497 26.937 48.8517C26.941 48.8477 26.942 48.8427 26.946 48.8387C26.9965 48.7924 27.0369 48.7362 27.0646 48.6736C27.0923 48.6109 27.1068 48.5432 27.107 48.4747V42.4747C27.107 42.3421 27.0543 42.2149 26.9606 42.1211C26.8668 42.0274 26.7396 41.9747 26.607 41.9747Z" fill="#526BE3"/>
</svg>
