<svg width="1746" height="1262" viewBox="0 0 1746 1262" fill="none" xmlns="http://www.w3.org/2000/svg">
<g id="illustration-contact-information" clip-path="url(#clip0)">
<rect width="1746" height="1262" fill="white"/>
<g id="illustration-contact-information_2">
<g id="Group 5">
<g id="Group 16">
<g id="Rectangle 5">
<path id="Mask" fill-rule="evenodd" clip-rule="evenodd" d="M482.009 112.302C659.231 7.87829 825.394 167.13 1029.44 179.916C1189.17 189.925 1359.8 53.8049 1457.16 179.916C1535.25 281.059 1372.51 389.472 1390.46 533.433C1407.58 670.768 1522.42 737.141 1578.81 918.789C1616.6 1040.54 1532.18 1144.91 1433.08 1162.82C1254.06 1195.19 1137.87 1093.49 1086.6 1113.39C782.519 1231.42 510.281 1156.69 437.468 1134.75C225.646 1070.94 87.5434 918.789 111.744 756.756C150.265 498.848 371.963 519.145 394.283 455.629C437.468 332.737 367.257 179.916 482.009 112.302Z" fill="#B6DFFD"/>
<mask id="mask0" mask-type="alpha" maskUnits="userSpaceOnUse" x="109" y="77" width="1480" height="1102">
<path id="Mask_2" fill-rule="evenodd" clip-rule="evenodd" d="M482.009 112.302C659.231 7.87829 825.394 167.13 1029.44 179.916C1189.17 189.925 1359.8 53.8049 1457.16 179.916C1535.25 281.059 1372.51 389.472 1390.46 533.433C1407.58 670.768 1522.42 737.141 1578.81 918.789C1616.6 1040.54 1532.18 1144.91 1433.08 1162.82C1254.06 1195.19 1137.87 1093.49 1086.6 1113.39C782.519 1231.42 510.281 1156.69 437.468 1134.75C225.646 1070.94 87.5434 918.789 111.744 756.756C150.265 498.848 371.963 519.145 394.283 455.629C437.468 332.737 367.257 179.916 482.009 112.302Z" fill="white"/>
</mask>
<g mask="url(#mask0)">
</g>
</g>
<g id="Group">
<rect id="Rectangle-path" width="285.262" height="147.044" transform="matrix(-1 0 0 1 1322.23 852.92)" fill="#6CB0E1"/>
<rect id="Rectangle-path_2" width="6.86198" height="148.024" transform="matrix(-1 0 0 1 1297.72 567.654)" fill="#6CB0E1"/>
<rect id="Rectangle-path_3" width="11.7634" height="126.458" transform="matrix(-1 0 0 1 1290.86 589.221)" fill="#6CB0E1"/>
<rect id="Rectangle-path_4" width="13.724" height="99.9899" transform="matrix(-1 0 0 1 1277.14 615.688)" fill="#6CB0E1"/>
<rect id="Rectangle-path_5" width="13.724" height="86.2658" transform="matrix(-0.987962 -0.154694 -0.154694 0.987962 1262.16 630.014)" fill="#6CB0E1"/>
<rect id="Rectangle-path_6" width="13.724" height="86.2658" transform="matrix(-0.987962 -0.154694 -0.154694 0.987962 1248.44 630.014)" fill="#6CB0E1"/>
<rect id="Rectangle-path_7" width="16.6648" height="61.7585" transform="matrix(-1 0 0 1 1220.28 653.92)" fill="#6CB0E1"/>
<rect id="Rectangle-path_8" width="7.84226" height="14.7044" transform="matrix(-1 0 0 1 1215.38 697.053)" fill="#6CB0E1"/>
<rect id="Rectangle-path_9" width="7.84226" height="38.2314" transform="matrix(-1 0 0 1 1215.38 657.842)" fill="#6CB0E1"/>
<g id="Group_2">
<rect id="Rectangle-path_10" width="21.5662" height="94.9159" transform="matrix(-1 0 0 1 1081.28 758.023)" fill="#6CB0E1"/>
<rect id="Rectangle-path_11" width="13.92" height="11.7204" transform="matrix(-1 0 0 1 1077.36 819.893)" fill="#6CB0E1"/>
<rect id="Rectangle-path_12" width="13.92" height="1.92138" transform="matrix(-1 0 0 1 1077.36 816.434)" fill="#6CB0E1"/>
</g>
<g id="Group_3">
<rect id="Rectangle-path_13" width="21.5663" height="94.9164" transform="matrix(-0.999995 -0.003058 -0.003058 0.999995 1102.58 758.061)" fill="#8DC4EB"/>
<rect id="Rectangle-path_14" width="13.9201" height="11.7204" transform="matrix(-0.999995 -0.003058 -0.003058 0.999995 1098.54 819.916)" fill="#8DC4EB"/>
<rect id="Rectangle-path_15" width="13.92" height="1.92137" transform="matrix(-0.999995 -0.003058 -0.003058 0.999995 1098.52 816.459)" fill="#8DC4EB"/>
</g>
<g id="Group_4">
<rect id="Rectangle-path_16" width="21.5662" height="94.9159" transform="matrix(-1 0 0 1 1124.61 758.023)" fill="#6CB0E1"/>
<rect id="Rectangle-path_17" width="13.92" height="11.7204" transform="matrix(-1 0 0 1 1120.88 819.893)" fill="#6CB0E1"/>
<rect id="Rectangle-path_18" width="13.92" height="1.92138" transform="matrix(-1 0 0 1 1120.88 816.434)" fill="#6CB0E1"/>
</g>
<g id="Group_5">
<rect id="Rectangle-path_19" width="58.6473" height="90.9957" transform="matrix(-1 0 0 1 1286.19 385.299)" fill="#6CB0E1"/>
<rect id="Rectangle-path_20" width="58.6473" height="90.9957" transform="matrix(-1 0 0 1 1271 385.299)" fill="#8DC4EB"/>
<path id="Shape" d="M1160.82 432.717V432.717C1164.47 432.717 1167.55 433.677 1167.55 437.324V476.295H1154.09V437.324C1154.09 433.869 1157.17 432.717 1160.82 432.717Z" fill="#8DC4EB"/>
<path id="Shape_2" d="M1144.67 448.842V448.842C1148.32 448.842 1151.4 451.913 1151.4 455.561V476.486H1137.94V455.561C1138.13 451.721 1141.01 448.842 1144.67 448.842Z" fill="#8DC4EB"/>
<path id="Shape_3" d="M1241 421.006H1243.89C1247.54 421.006 1250.62 424.077 1250.62 427.725V476.294H1234.47V427.725C1234.27 424.077 1237.35 421.006 1241 421.006Z" fill="#8DC4EB"/>
<g id="Group_6">
<path id="Shape_4" d="M1183.7 457.288C1183.7 469.766 1196.59 476.294 1212.35 476.294C1228.12 476.294 1240.81 469.766 1240.81 457.288C1240.81 444.81 1228.12 438.475 1212.35 438.475C1196.59 438.475 1183.7 444.81 1183.7 457.288Z" fill="#6CB0E1"/>
<path id="Shape_5" d="M1176.21 434.06C1176.21 434.06 1182.74 438.668 1187.36 440.011C1194.67 441.931 1198.51 439.819 1198.9 440.011L1212.36 438.092C1212.36 438.092 1209.47 430.989 1195.24 429.453C1187.55 428.877 1176.21 434.06 1176.21 434.06Z" fill="#6CB0E1"/>
<path id="Shape_6" d="M1248.5 434.06C1248.5 434.06 1241.97 440.011 1237.16 441.355C1229.85 443.275 1226.2 439.819 1225.81 440.011L1212.35 438.092C1212.35 438.092 1215.24 430.989 1229.47 429.453C1237.16 428.877 1248.5 434.06 1248.5 434.06Z" fill="#6CB0E1"/>
<path id="Shape_7" d="M1191.97 423.885C1191.97 423.885 1196.39 428.684 1198.89 430.988C1202.36 434.444 1211.2 435.404 1211.2 435.404C1211.2 435.404 1211.97 428.301 1204.47 423.693C1200.24 421.389 1191.97 423.885 1191.97 423.885Z" fill="#6CB0E1"/>
<path id="Shape_8" d="M1233.89 426.188C1233.89 426.188 1228.12 430.987 1225.43 433.291C1222.55 435.595 1217.16 437.322 1213.51 438.09C1211.59 438.474 1209.66 438.474 1209.66 438.474C1209.66 438.474 1210.24 431.947 1219.47 427.34C1224.66 424.46 1233.89 426.188 1233.89 426.188Z" fill="#6CB0E1"/>
<path id="Shape_9" d="M1223.12 412.559C1223.12 412.559 1224.08 420.813 1223.12 424.653C1221.59 430.604 1218.12 430.604 1218.32 430.988L1211.2 438.667C1211.2 438.667 1205.43 433.292 1210.43 422.925C1212.93 417.358 1223.12 412.559 1223.12 412.559Z" fill="#6CB0E1"/>
</g>
</g>
<g id="Group_7">
<path id="Shape_10" d="M1092.85 666.928C1082.06 725.062 1107.1 722.367 1124.24 722.367C1141.39 722.367 1171.24 722.367 1155.06 664.233C1145.43 629.007 1140.04 620.152 1123.09 620.152C1106.14 620.152 1099.97 629.2 1092.85 666.928Z" fill="#6CB0E1"/>
<path id="Oval" d="M1122.9 631.894C1115.45 631.894 1109.41 629.998 1109.41 627.659C1109.41 625.32 1115.45 623.424 1122.9 623.424C1130.34 623.424 1136.38 625.32 1136.38 627.659C1136.38 629.998 1130.34 631.894 1122.9 631.894Z" fill="#8DC4EB"/>
<path id="Shape_11" d="M1150.63 584.348C1140.81 590.316 1140.81 602.25 1146.39 611.49C1152.17 620.73 1161.42 624.002 1171.43 618.035C1181.26 612.068 1190.7 586.466 1190.7 586.466C1190.7 586.466 1160.45 578.381 1150.63 584.348Z" fill="#6CB0E1"/>
<path id="Shape_12" d="M1104.02 548.544C1107.68 558.747 1117.89 561.441 1126.75 558.169C1135.61 554.897 1140.04 547.197 1136.38 536.802C1132.72 526.6 1111.91 512.355 1111.91 512.355C1111.91 512.355 1100.36 538.342 1104.02 548.544Z" fill="#6CB0E1"/>
<path id="Shape_13" d="M1093.42 587.62C1099.97 593.588 1109.6 593.588 1114.8 588.005C1120 582.231 1117.31 571.066 1110.76 564.906C1104.21 558.746 1083.6 566.446 1083.6 566.446C1083.6 566.446 1086.87 581.461 1093.42 587.62Z" fill="#6CB0E1"/>
<path id="Shape_14" d="M1155.06 573.568C1148.9 579.343 1140.81 577.225 1138.5 575.493C1133.1 571.066 1134.07 562.981 1140.23 557.206C1146.2 551.431 1157.18 547.004 1157.18 547.004C1157.18 547.004 1163.92 565.483 1155.06 573.568Z" fill="#6CB0E1"/>
<path id="Shape_15" d="M1122.51 549.314C1122.51 549.314 1137.15 570.681 1125.01 626.697" stroke="#8DC4EB"/>
<path id="Shape_16" d="M1109.6 582.039C1109.6 582.039 1130.02 589.161 1123.09 627.66" stroke="#8DC4EB"/>
<path id="Shape_17" d="M1147.93 567.986C1147.93 567.986 1135.03 569.911 1126.17 627.852" stroke="#8DC4EB"/>
<path id="Shape_18" d="M1167.77 599.17C1167.77 599.17 1133.1 605.33 1127.13 629.199" stroke="#8DC4EB"/>
</g>
<rect id="Rectangle-path_21" width="99.0085" height="64.6994" transform="matrix(-1 0 0 1 1280.08 788.221)" fill="#6CB0E1"/>
<rect id="Rectangle-path_22" width="80.3832" height="49.0147" transform="matrix(-1 0 0 1 1270.28 797.043)" fill="#8DC4EB"/>
<path id="Shape_19" opacity="0.65" d="M1221.11 846.058H1239.89L1202.73 797.043H1189.89V803.797L1221.11 846.058Z" fill="#6CB0E1"/>
<rect id="Rectangle-path_23" width="55.8761" height="37.2512" transform="matrix(-1 0 0 1 1214.4 816.648)" fill="#8DC4EB"/>
<rect id="Rectangle-path_24" width="46.0733" height="28.4285" transform="matrix(-1 0 0 1 1209.5 820.57)" fill="#8DC4EB"/>
<g id="Group_8">
<path id="Shape_20" d="M1322.04 1033.71H1297.45V479.955C1297.45 478.028 1299.17 476.486 1300.9 476.486H1318.96C1320.69 476.486 1322.04 477.835 1322.04 479.569V1033.71V1033.71Z" fill="#8DC4EB"/>
<path id="Shape_21" d="M1060.16 1033.71H1035.57V479.955C1035.57 478.028 1037.3 476.486 1039.03 476.486H1060.16V1033.71Z" fill="#8DC4EB"/>
</g>
<g id="Group_9">
<path id="Oval_2" d="M1202.93 933.304C1200.48 933.304 1198.49 931.285 1198.49 928.795C1198.49 926.304 1200.48 924.285 1202.93 924.285C1205.37 924.285 1207.36 926.304 1207.36 928.795C1207.36 931.285 1205.37 933.304 1202.93 933.304Z" fill="#DEF1FF"/>
<path id="Shape_22" d="M1152.99 926.834V930.755H1200.04V926.834" fill="#DEF1FF"/>
<path id="Oval_3" d="M1155.5 933.304C1153.05 933.304 1151.07 931.285 1151.07 928.795C1151.07 926.304 1153.05 924.285 1155.5 924.285C1157.95 924.285 1159.93 926.304 1159.93 928.795C1159.93 931.285 1157.95 933.304 1155.5 933.304Z" fill="#DEF1FF"/>
</g>
<rect id="Rectangle-path_25" width="279.38" height="27.4482" transform="matrix(-1 0 0 1 1319.29 476.486)" fill="#8DC4EB"/>
<rect id="Rectangle-path_26" width="279.38" height="27.4482" transform="matrix(-1 0 0 1 1319.29 715.678)" fill="#8DC4EB"/>
<path id="Shape_23" d="M1185.97 848.999H1181.11L1163.43 820.57H1167.9L1185.97 848.999Z" fill="#6CB0E1"/>
<path id="Shape_24" d="M1203.62 848.999H1193.64L1176.17 820.57H1185.57L1203.62 848.999Z" fill="#77B6E4"/>
<path id="Shape_25" opacity="0.65" d="M1244.61 846.058H1254.59L1217.35 797.043H1213.51H1208.52L1244.61 846.058Z" fill="#6CB0E1"/>
<rect id="Rectangle-path_27" width="288.203" height="318.595" transform="matrix(-1 0 0 1 1035.01 715.678)" fill="#6CB0E1"/>
<rect id="Rectangle-path_28" width="288.203" height="318.595" transform="matrix(-1 0 0 1 771.957 715.678)" fill="#8DC4EB"/>
<path id="Rectangle-path_29" d="M553.578 769.521L454.883 769.521H269.176V1036.19H553.578V769.521Z" fill="#8DC4EB"/>
<g id="Group 3">
<path id="Shape_26" d="M294.608 719.361C288.684 768.969 316.176 768.678 330.614 768.678C345.052 768.678 374.277 764.279 363.381 714.367C357.081 685.505 348.84 682.59 329.641 682.59C310.441 682.59 298.624 685.739 294.608 719.361Z" fill="#8DC4EB"/>
<path id="Oval_4" d="M329.263 694.349C321.816 694.349 315.78 692.453 315.78 690.114C315.78 687.775 321.816 685.879 329.263 685.879C336.709 685.879 342.746 687.775 342.746 690.114C342.746 692.453 336.709 694.349 329.263 694.349Z" fill="#6CB0E1"/>
<path id="Shape_27" d="M357.483 647.52C347.659 653.488 347.659 665.422 353.245 674.662C359.023 683.902 368.269 687.174 378.285 681.207C388.109 675.239 397.547 649.638 397.547 649.638C397.547 649.638 367.306 641.553 357.483 647.52Z" fill="#8DC4EB"/>
<path id="Shape_28" d="M310.193 611.365C313.852 621.567 324.061 624.262 332.921 620.989C341.782 617.717 346.212 610.017 342.552 599.623C338.892 589.42 318.09 575.176 318.09 575.176C318.09 575.176 306.533 601.162 310.193 611.365Z" fill="#8DC4EB"/>
<path id="Shape_29" d="M299.998 650.697C306.547 656.664 316.177 656.664 321.378 651.082C326.579 645.307 323.882 634.142 317.333 627.982C310.784 621.822 290.174 629.522 290.174 629.522C290.174 629.522 293.449 644.537 299.998 650.697Z" fill="#8DC4EB"/>
<path id="Shape_30" d="M361.188 635.718C355.024 641.493 346.934 639.376 344.623 637.643C339.23 633.216 340.193 625.131 346.356 619.356C352.328 613.582 363.307 609.154 363.307 609.154C363.307 609.154 370.048 627.634 361.188 635.718Z" fill="#8DC4EB"/>
<path id="Shape_31" d="M328.851 612.441C328.851 612.441 343.49 633.808 331.355 689.824" stroke="#6CB0E1"/>
<path id="Shape_32" d="M315.768 644.229C315.768 644.229 336.185 651.351 329.251 689.85" stroke="#6CB0E1"/>
<path id="Shape_33" d="M354.801 631.074C354.801 631.074 341.895 632.999 333.035 690.94" stroke="#6CB0E1"/>
<path id="Shape_34" d="M374.531 661.764C374.531 661.764 339.86 667.923 333.889 691.793" stroke="#6CB0E1"/>
</g>
<g id="Group_10">
<rect id="Rectangle-path_30" width="32.2787" height="131.581" transform="matrix(-1 0 0 1 1034.62 584.318)" fill="#6CB0E1"/>
<rect id="Rectangle-path_31" width="32.2787" height="131.581" transform="matrix(-1 0 0 1 1001.96 584.318)" fill="#8DC4EB"/>
<rect id="Rectangle-path_32" width="12.4888" height="82.3106" transform="matrix(-1 0 0 1 992.164 598.23)" fill="#8DC4EB"/>
<rect id="Rectangle-path_33" width="12.4888" height="82.3106" transform="matrix(-1 0 0 1 1024.82 597.264)" fill="#8DC4EB"/>
<rect id="Rectangle-path_34" width="12.4888" height="17.1963" transform="matrix(-1 0 0 1 1024.82 684.404)" fill="#8DC4EB"/>
<rect id="Rectangle-path_35" width="12.4888" height="17.1963" transform="matrix(-1 0 0 1 992.164 684.404)" fill="#8DC4EB"/>
<g id="Group_11">
<rect id="Rectangle-path_36" width="19.2138" height="105.305" transform="matrix(-0.947588 -0.319496 -0.319496 0.947588 969.816 616.24)" fill="#8DC4EB"/>
<rect id="Rectangle-path_37" width="13.2575" height="3.28474" transform="matrix(-0.947588 -0.319496 -0.319496 0.947588 939.648 687.199)" fill="#8DC4EB"/>
</g>
<g id="Group_12">
<rect id="Rectangle-path_38" width="19.2138" height="105.305" transform="matrix(-0.947588 -0.319496 -0.319496 0.947588 949.453 616.24)" fill="#8DC4EB"/>
<rect id="Rectangle-path_39" width="13.2575" height="3.28474" transform="matrix(-0.947588 -0.319496 -0.319496 0.947588 919.477 687.197)" fill="#8DC4EB"/>
</g>
<g id="Group_13">
<rect id="Rectangle-path_40" width="19.2138" height="105.305" transform="matrix(-0.947588 -0.319496 -0.319496 0.947588 929.277 616.24)" fill="#8DC4EB"/>
<rect id="Rectangle-path_41" width="13.2575" height="3.28474" transform="matrix(-0.947588 -0.319496 -0.319496 0.947588 899.301 687.197)" fill="#8DC4EB"/>
</g>
<rect id="Rectangle-path_42" width="112.015" height="16.4235" transform="matrix(-1 0 0 1 859.012 699.09)" fill="#8DC4EB"/>
<rect id="Rectangle-path_43" width="92.4171" height="15.8438" transform="matrix(-1 0 0 1 839.414 683.246)" fill="#8DC4EB"/>
</g>
<g id="Group_14">
<path id="Oval_5" d="M655.999 823.696C653.551 823.696 651.565 821.678 651.565 819.187C651.565 816.697 653.551 814.678 655.999 814.678C658.448 814.678 660.434 816.697 660.434 819.187C660.434 821.678 658.448 823.696 655.999 823.696Z" fill="#DEF1FF"/>
<path id="Shape_35" d="M606.069 817.227V821.148H653.109V817.227" fill="#DEF1FF"/>
<path id="Oval_6" d="M608.574 823.696C606.125 823.696 604.14 821.678 604.14 819.187C604.14 816.697 606.125 814.678 608.574 814.678C611.023 814.678 613.008 816.697 613.008 819.187C613.008 821.678 611.023 823.696 608.574 823.696Z" fill="#DEF1FF"/>
</g>
<g id="Group_15">
<path id="Oval_7" d="M655.999 900.421C653.551 900.421 651.565 898.402 651.565 895.912C651.565 893.421 653.551 891.402 655.999 891.402C658.448 891.402 660.434 893.421 660.434 895.912C660.434 898.402 658.448 900.421 655.999 900.421Z" fill="#DEF1FF"/>
<path id="Shape_36" d="M606.069 893.951V897.872H653.109V893.951" fill="#DEF1FF"/>
<path id="Oval_8" d="M608.574 900.421C606.125 900.421 604.14 898.402 604.14 895.912C604.14 893.421 606.125 891.402 608.574 891.402C611.023 891.402 613.008 893.421 613.008 895.912C613.008 898.402 611.023 900.421 608.574 900.421Z" fill="#DEF1FF"/>
</g>
<g id="Group_16">
<path id="Oval_9" d="M655.999 966.185C653.551 966.185 651.565 964.166 651.565 961.675C651.565 959.185 653.551 957.166 655.999 957.166C658.448 957.166 660.434 959.185 660.434 961.675C660.434 964.166 658.448 966.185 655.999 966.185Z" fill="#DEF1FF"/>
<path id="Shape_37" d="M606.069 959.715V963.636H653.109V959.715" fill="#DEF1FF"/>
<path id="Oval_10" d="M608.574 966.185C606.125 966.185 604.14 964.166 604.14 961.675C604.14 959.185 606.125 957.166 608.574 957.166C611.023 957.166 613.008 959.185 613.008 961.675C613.008 964.166 611.023 966.185 608.574 966.185Z" fill="#DEF1FF"/>
</g>
</g>
</g>
<g id="Illustration">
<g id="Group_17">
<g id="Group_18">
<path id="Shape_38" d="M535.059 741.578H413.388C408.644 741.578 404.746 745.425 404.746 750.109V750.109C404.746 754.792 408.644 758.64 413.388 758.64H535.059C539.804 758.64 543.702 754.792 543.702 750.109V750.109C543.702 745.258 539.804 741.578 535.059 741.578Z" fill="#5C4C43"/>
<path id="Shape_39" d="M462.359 598.397V707.289C462.359 709.631 464.223 711.47 466.596 711.47V711.47C468.968 711.47 470.832 709.631 470.832 707.289V598.397C470.832 596.055 468.968 594.215 466.596 594.215V594.215C464.223 594.048 462.359 596.055 462.359 598.397Z" fill="#5C4C43"/>
<path id="Shape_40" d="M548.953 741.244H384.579C376.276 741.244 369.328 734.553 369.328 726.19V726.19C369.328 717.993 376.106 707.288 387.46 704.445C387.46 704.445 450.329 704.277 469.139 704.277C492.185 704.445 554.546 705.448 554.546 705.448C564.883 710.634 564.035 717.826 564.035 726.022V726.022C564.035 734.553 557.257 741.244 548.953 741.244Z" fill="#6D5B51"/>
<path id="Shape_41" d="M426.773 637.035V637.035C420.503 638.373 414.402 634.526 413.046 628.337L381.358 481.308C378.477 467.926 388.644 455.381 402.371 455.046C436.94 454.21 496.42 454.377 524.55 453.875C534.887 453.708 543.19 462.406 542.343 472.61L529.972 620.81C529.295 629.341 522.008 635.864 513.366 636.031C485.744 635.864 431.348 636.031 426.773 637.035Z" fill="#6D5B51"/>
<path id="Shape_42" d="M448.972 692.903V692.903C442.532 690.226 439.482 682.866 442.193 676.51L463.884 625.159C466.595 618.802 474.052 615.791 480.491 618.468V618.468C486.93 621.144 489.981 628.504 487.269 634.86L465.579 686.212C462.867 692.568 455.411 695.579 448.972 692.903Z" fill="#2E1703"/>
<path id="Shape_43" d="M504.556 758.473H449.312V758.473C449.312 770.349 459.141 780.05 471.173 780.05H482.696C494.727 780.05 504.556 770.349 504.556 758.473V758.473Z" fill="#5C4C43"/>
<rect id="Rectangle-path_44" x="470.156" y="770.684" width="12.3704" height="139.335" fill="#5C4C43"/>
<path id="Shape_44" d="M555.732 921.226H388.138C387.291 921.226 386.613 920.557 386.613 919.721V919.721C386.613 911.023 393.731 903.83 402.712 903.83H543.362C551.157 903.83 557.427 910.019 557.427 917.713V919.721C557.257 920.557 556.58 921.226 555.732 921.226Z" fill="#5C4C43"/>
<rect id="Rectangle-path_45" x="389.324" y="921.225" width="14.7428" height="5.18534" fill="#5C4C43"/>
<rect id="Rectangle-path_46" x="541.328" y="921.059" width="13.7261" height="4.8508" fill="#5C4C43"/>
<g id="Group_19">
<path id="Oval_11" d="M391.695 959.53C402.739 959.53 411.691 952.041 411.691 942.803C411.691 933.565 402.739 926.076 391.695 926.076C380.652 926.076 371.699 933.565 371.699 942.803C371.699 952.041 380.652 959.53 391.695 959.53Z" fill="#1B0E02"/>
<path id="Shape_45" d="M388.814 923.566H395.592C405.59 923.566 413.555 931.428 413.555 941.297V941.297H370.852V941.297C370.852 931.595 378.816 923.566 388.814 923.566Z" fill="#5C4C43"/>
</g>
<g id="Group_20">
<path id="Oval_12" d="M552.344 959.53C563.387 959.53 572.34 952.041 572.34 942.803C572.34 933.565 563.387 926.076 552.344 926.076C541.3 926.076 532.348 933.565 532.348 942.803C532.348 952.041 541.3 959.53 552.344 959.53Z" fill="#1B0E02"/>
<path id="Shape_46" d="M549.463 923.566H556.241C566.239 923.566 574.203 931.428 574.203 941.297V941.297H531.5V941.297C531.5 931.595 539.465 923.566 549.463 923.566Z" fill="#5C4C43"/>
</g>
</g>
<g id="Group_21">
<path id="Shape_47" d="M695.963 442.888L736.56 489.999L771.822 526.413L791.882 488.606C791.882 488.606 792.603 483.518 771.823 455.381C751.042 427.244 728.24 397.108 728.24 397.108L695.963 442.888Z" fill="#EAD1C5"/>
<g id="Group_22">
<path id="Shape_48" d="M640.594 981.048C647.001 993.265 682.412 991.926 696.239 982.721C701.297 979.374 705.007 960.462 701.297 957.617C691.18 949.751 646.327 957.449 638.907 964.311C636.715 966.32 639.245 978.37 640.594 981.048Z" fill="#F1F7FE"/>
<path id="Shape_49" d="M650.711 887.324L691.18 885.65C691.18 885.65 689.494 895.525 691.18 907.408C691.517 909.751 694.553 910.755 694.553 915.776C694.553 932.512 697.925 946.906 692.866 957.617C682.749 979.374 667.573 959.291 667.573 959.291L652.397 937.533C652.397 937.533 654.421 916.278 654.083 909.081C653.746 903.558 650.711 887.324 650.711 887.324Z" fill="white"/>
<path id="Shape_50" d="M640.593 972.68C643.966 979.374 650.542 983.726 662.514 984.395C673.981 985.065 680.22 983.391 686.121 981.048C694.552 977.701 698.093 974.019 701.297 964.311C702.983 959.29 699.611 945.901 697.925 939.207C696.576 933.851 697.419 918.956 697.925 917.282C699.611 912.428 693.035 916.613 692.866 917.449C691.18 924.144 691.686 941.215 689.494 947.575C687.807 952.596 699.611 907.408 682.749 907.408C669.09 907.408 663.526 906.069 659.142 910.755C657.961 912.094 657.456 915.608 657.456 917.449C657.456 923.642 659.142 947.575 659.142 947.575C659.142 947.575 658.299 920.629 652.397 919.123C651.048 918.788 650.036 918.956 649.024 920.797C646.832 924.646 650.036 933.851 649.024 940.88C648.013 947.742 640.088 952.763 638.907 959.29C638.064 964.479 639.076 969.667 640.593 972.68Z" fill="#252F3F"/>
<path id="Shape_51" d="M649.867 958.454C649.867 958.454 677.858 958.956 692.866 957.617C702.14 956.78 652.397 950.922 652.397 950.922C652.397 950.922 680.556 953.935 688.65 951.759C697.924 949.249 656.612 946.738 656.612 946.738L690.336 943.391L656.612 941.717L693.709 936.697L654.926 933.349L693.709 930.002" stroke="white" stroke-linecap="round" stroke-linejoin="round"/>
</g>
<path id="Shape_52" d="M498.953 458.87C498.953 458.87 500.302 487.322 493.895 544.226C493.051 551.255 492.546 577.364 488.836 602.803C484.452 632.427 477.032 661.381 477.032 661.381L434.371 662.05L450.053 646.318C450.053 646.318 448.029 620.209 450.053 594.435C451.739 573.18 450.896 567.489 450.053 559.289C443.308 488.996 455.112 448.828 455.112 448.828L498.953 458.87Z" fill="#EAD1C5"/>
<g id="Group_23">
<path id="Shape_53" d="M631.551 1016.19C625.143 1028.41 589.733 1027.07 575.906 1017.87C570.847 1014.52 567.137 995.608 570.847 992.763C580.964 984.897 625.818 992.596 633.237 999.458C635.429 1001.47 632.9 1013.52 631.551 1016.19Z" fill="#F1F7FE"/>
<path id="Shape_54" d="M576.52 922.471L616.989 920.797C616.989 920.797 615.303 930.671 616.989 942.554C617.326 944.897 620.361 945.902 620.361 950.922C620.361 967.659 623.734 982.052 618.675 992.764C608.558 1014.52 593.382 994.437 593.382 994.437L578.206 972.68C578.206 972.68 580.229 951.425 579.892 944.228C579.555 938.705 576.52 922.471 576.52 922.471Z" fill="white"/>
<path id="Shape_55" d="M631.063 1007.83C627.69 1014.52 621.114 1018.87 609.142 1019.54C597.676 1020.21 591.437 1018.54 585.535 1016.19C577.104 1012.85 573.563 1009.17 570.359 999.458C568.673 994.437 572.045 981.048 573.731 974.353C575.08 968.998 574.237 954.102 573.731 952.428C572.045 947.575 578.621 951.759 578.79 952.596C580.476 959.29 579.97 976.362 582.163 982.721C583.849 987.742 572.045 942.554 588.907 942.554C602.566 942.554 608.13 941.215 612.514 945.901C613.695 947.24 614.201 950.755 614.201 952.596C614.201 958.788 612.514 982.721 612.514 982.721C612.514 982.721 613.358 955.776 619.259 954.27C620.608 953.935 621.62 954.102 622.632 955.943C624.824 959.793 621.62 968.998 622.632 976.027C623.643 982.889 631.569 987.91 632.749 994.437C633.592 999.625 632.58 1004.81 631.063 1007.83Z" fill="#252F3F"/>
<path id="Shape_56" d="M579.826 993.535C579.826 993.535 605.665 989.519 620.197 990.264C629.439 990.816 579.214 988.552 579.214 988.552C579.214 988.552 606.727 984.33 615.299 984.964C624.896 985.641 582.888 983.885 582.888 983.885L615.953 976.453L582.276 978.902L618.484 969.397L579.582 970.801L617.668 962.752" stroke="white" stroke-linecap="round" stroke-linejoin="round"/>
</g>
<path id="Shape_57" d="M536.049 619.54C532.17 622.552 536.555 648.661 539.421 694.854C541.782 733.18 551.225 766.486 557.97 805.314C558.813 809.833 562.691 814.519 561.342 818.703C560.499 821.214 562.522 822.887 563.028 825.398C563.365 826.737 561.511 827.072 561.342 828.745C561.173 829.917 562.86 832.595 563.028 833.766C563.365 837.281 573.9 939.619 573.9 939.619C577.23 940.406 589.536 939.921 600.137 939.619C612.077 939.279 619.814 936.804 621.958 935.74L608.556 830.419C608.556 830.419 612.572 761.139 613.615 717.344C613.916 704.703 622.078 695.268 621.958 667.77C621.906 656.034 613.615 617.866 613.615 617.866C613.615 617.866 541.613 615.356 536.049 619.54Z" fill="#2C3B5A"/>
<path id="Shape_58" d="M609.738 619.038L624.408 807.825L686.124 1001.13L760.317 996.11L703.661 802.637L691.014 612.846L609.738 619.038Z" fill="#2C3B5A"/>
<path id="Shape_59" d="M595.066 326.766L600.125 336.807L598.438 388.69L559.655 405.427L527.617 363.586V336.807L595.066 326.766Z" fill="#E0B7B3"/>
<path id="Shape_60" d="M527.617 333.461C527.617 333.461 566.4 388.691 573.145 388.691C579.89 388.691 601.811 331.787 601.811 328.44C601.811 325.093 613.277 330.951 616.987 331.787C628.453 334.465 664.201 336.808 664.201 336.808C664.201 336.808 677.691 335.135 686.122 345.177C691.012 350.867 693.71 353.88 696.239 356.892C711.415 375.302 741.767 407.101 741.767 407.101C741.767 407.101 730.132 420.323 718.16 432.206C708.043 442.248 704.67 455.637 704.67 455.637L676.005 428.859C676.005 428.859 677.691 437.227 669.26 472.374C666.899 482.248 664.876 573.629 669.26 602.918C669.26 602.918 623.057 614.968 583.263 617.98C556.958 619.989 527.955 617.646 527.617 614.633C527.449 612.457 528.798 605.428 529.304 602.918C529.81 600.909 532.845 599.905 532.676 597.897C532.507 596.725 530.99 595.721 529.978 594.549C529.472 594.047 528.966 593.378 528.966 592.876C527.786 582.332 527.617 571.118 525.931 559.403C521.547 530.282 514.802 501.16 510.755 492.457C500.638 470.7 502.324 460.658 502.324 460.658V475.721C502.324 475.721 470.286 465.679 446.679 465.679C443.307 465.679 454.941 365.093 463.541 355.218C473.658 343.503 527.617 333.461 527.617 333.461Z" fill="white"/>
<path id="Shape_61" d="M517.5 299.988C517.5 299.988 512.442 264.842 517.5 266.516C522.559 268.189 525.931 271.536 534.363 271.536C542.794 271.536 542.794 273.21 542.794 273.21L564.714 259.821C564.714 259.821 578.541 258.147 579.89 269.863C581.577 284.926 581.577 283.252 584.949 286.599C590.851 292.457 590.008 283.252 590.008 283.252C590.008 283.252 593.38 268.189 598.439 269.863C603.497 271.536 603.497 283.252 603.497 283.252C603.497 283.252 605.184 296.641 603.497 299.988C602.486 302.164 600.968 312.206 596.753 310.03C593.38 308.357 593.38 306.683 593.38 306.683L591.694 325.093L576.518 341.829L559.656 353.545L536.049 336.809C536.049 336.809 524.245 330.114 522.559 320.072C522.053 316.725 520.873 331.788 515.814 320.072C510.756 308.357 505.697 294.967 510.756 294.967C515.814 294.967 517.5 299.988 517.5 299.988Z" fill="#EAD1C5"/>
<path id="Shape_62" d="M519.187 303.335C510.756 298.314 500.639 274.883 504.011 273.21C507.046 271.703 488.835 248.105 507.384 243.084C512.78 241.578 512.442 234.716 519.187 236.389C525.932 238.063 509.07 233.042 519.187 231.368C532.677 229.193 560.499 217.143 573.146 229.695C581.577 238.063 593.381 236.389 593.381 243.084C593.381 261.494 591.694 274.883 591.694 274.883L590.008 288.272C590.008 288.272 589.671 294.967 588.322 294.967C588.322 294.967 578.879 280.406 578.205 276.557C577.699 273.21 578.205 271.536 578.205 268.189C578.205 266.013 576.519 263.168 573.146 261.494C570.111 259.988 566.57 260.323 564.715 263.168C557.97 273.21 536.049 279.904 534.363 279.904C532.677 279.904 524.246 269.862 517.501 269.862C515.815 269.862 515.815 281.578 515.815 286.599C515.815 290.783 519.187 303.335 519.187 303.335Z" fill="#181F2A"/>
<path id="Shape_63" d="M517.5 301.661C517.5 301.661 518.512 300.657 519.186 303.334C520.704 309.025 524.751 322.749 529.304 325.092C536.048 328.439 539.421 333.46 541.107 335.134C542.793 336.807 544.142 327.77 549.538 325.092C552.911 323.418 563.534 317.56 569.773 321.744C574.831 325.092 579.89 326.765 579.89 326.765C579.89 326.765 586.635 321.745 586.635 316.724C586.635 311.703 586.635 293.293 585.455 290.447C584.949 289.276 589.67 287.1 590.007 288.272C591.356 292.79 591.525 300.489 593.38 306.682C596.415 316.556 601.136 324.757 600.125 326.765C598.438 330.113 586.635 356.891 583.262 361.912C579.89 366.933 557.969 371.954 552.911 368.607C539.084 359.401 524.919 345.51 522.559 338.481C521.884 336.305 523.57 330.615 522.559 323.418C521.21 313.544 517.5 301.661 517.5 301.661Z" fill="#181F2A"/>
<path id="Shape_64" opacity="0.502831" d="M489.848 435.889L502.326 464.006L505.698 482.416C505.698 482.416 508.059 488.608 509.071 490.784C511.094 495.47 515.815 510.366 515.815 510.366C515.815 510.366 515.815 499.152 512.443 492.458C509.071 485.763 510.757 477.395 505.698 457.311C504.855 454.131 489.848 435.889 489.848 435.889Z" fill="#E1D6D8"/>
<path id="Shape_65" opacity="0.435575" d="M529.305 605.596C529.305 605.596 546.167 614.633 556.284 612.96C566.401 611.286 546.167 606.265 546.167 606.265L529.305 605.596Z" fill="#E1D6D8"/>
<path id="Shape_66" opacity="0.435575" d="M542.796 597.896C542.796 597.896 549.54 599.57 539.423 601.244C529.306 602.917 530.992 600.742 530.992 600.742C530.992 600.742 533.859 597.729 531.667 596.055C529.475 594.382 542.796 597.896 542.796 597.896Z" fill="#E1D6D8"/>
</g>
<g id="Group_24">
<path id="Shape_67" d="M941.612 798.465H677.824C671.061 798.465 665.48 792.946 665.48 786.257V786.257C665.48 779.567 671.061 774.049 677.824 774.049H941.612C948.375 774.049 953.955 779.567 953.955 786.257V786.257C953.786 792.946 948.375 798.465 941.612 798.465Z" fill="#6D5B51"/>
<rect id="Rectangle-path_47" x="679.688" y="798.465" width="289.151" height="10.3684" fill="#5C4C43"/>
<rect id="Rectangle-path_48" x="958.352" y="527.047" width="10.4838" height="275.097" fill="#5C4C43"/>
<rect id="Rectangle-path_49" x="822.91" y="808.666" width="10.822" height="154.188" fill="#5C4C43"/>
<path id="Shape_68" d="M750.367 965.362C757.3 958.506 902.383 961.85 905.765 965.028C910.331 968.874 906.272 973.724 906.272 973.724H750.367C750.367 973.724 747.493 968.205 750.367 965.362Z" fill="#5C4C43"/>
<path id="Oval_13" d="M807.522 1016.03C816.113 1016.03 823.078 1009.52 823.078 1001.48C823.078 993.449 816.113 986.936 807.522 986.936C798.93 986.936 791.965 993.449 791.965 1001.48C791.965 1009.52 798.93 1016.03 807.522 1016.03Z" fill="#1B0E02"/>
<path id="Oval_14" d="M905.596 1009.34C914.187 1009.34 921.152 1002.83 921.152 994.795C921.152 986.76 914.187 980.246 905.596 980.246C897.004 980.246 890.039 986.76 890.039 994.795C890.039 1002.83 897.004 1009.34 905.596 1009.34Z" fill="#1B0E02"/>
<path id="Shape_69" d="M906.742 966.411C908.759 968.233 911.159 974.836 912.661 979.049C913.366 981.028 921.677 986.721 921.41 987.672C920.122 990.942 914.005 986.237 906.291 987.672C898.578 989.106 892.803 994.274 890.395 993.833C887.281 993.263 891.383 987.195 894.874 984.436C894.729 984.15 899.527 981.262 899.379 980.986C895.298 973.388 891.383 969.628 891.383 969.628C891.383 969.628 904.725 964.589 906.742 966.411Z" fill="#5C4C43"/>
<path id="Shape_70" d="M799.573 987.604C796.868 981.082 830.349 959.843 833.054 961.683C836.436 964.191 838.634 968.539 838.634 968.539L804.815 994.293C804.646 994.126 800.757 990.447 799.573 987.604Z" fill="#5C4C43"/>
<path id="Shape_71" d="M791.117 985.764C791.117 985.764 817.834 984.761 820.032 986.935C825.274 991.952 825.105 999.143 824.26 998.474C824.26 998.474 821.554 995.966 807.858 995.631C798.726 995.297 792.301 998.14 792.301 998.14L791.117 985.764Z" fill="#5C4C43"/>
<path id="Shape_72" d="M886.996 483.567C886.996 483.567 860.787 502.465 850.472 504.137C842.694 505.642 819.02 499.12 819.02 499.12C819.02 499.12 816.484 486.41 818.006 482.564C821.388 474.202 819.02 468.015 819.02 468.015L880.402 435.906C880.402 435.906 880.74 461.493 882.431 469.687C883.276 473.366 886.996 483.567 886.996 483.567Z" fill="#ECCBBD"/>
<path id="Shape_73" d="M765.586 970.88L691.184 1011.02C691.184 1011.02 629.127 911.847 576.2 825.388C542.381 770.201 566.054 728.226 571.127 723.376C607.144 687.923 833.9 715.851 833.9 715.851L713.336 780.737L653.984 790.269L765.586 970.88Z" fill="#32415D"/>
<path id="Shape_74" opacity="0.493546" d="M765.586 970.881L735.391 989.263C735.391 989.263 686.139 901.46 633.213 815.001C599.394 759.814 662.795 767.304 667.868 762.455C672.941 757.605 765.586 741.555 765.586 741.555L653.984 790.271L765.586 970.881Z" fill="#28344B"/>
<path id="Shape_75" d="M819.02 468.015C819.02 468.015 819.527 474.704 819.865 478.383C823.247 481.226 825.614 482.229 827.982 482.229C847.596 482.229 869.41 456.643 880.232 438.08C880.063 434.903 880.57 419.016 880.57 419.016L819.02 468.015Z" fill="#E0B8B3"/>
<path id="Shape_76" d="M827.473 471.693V471.693C825.275 471.693 817.665 474.202 809.549 459.151C805.152 451.124 801.094 437.076 801.094 435.738C799.403 427.377 802.785 419.851 802.785 413.998C802.785 410.152 797.205 404.633 797.712 400.619C801.094 373.862 814.114 347.941 838.633 347.941V347.941C863.152 347.941 883.105 367.675 883.105 391.923V416.674C883.105 422.025 874.988 418.848 873.805 427.377C873.805 440.755 867.21 447.444 863.659 450.789C851.822 461.492 840.662 471.693 827.473 471.693Z" fill="#ECCBBD"/>
<path id="Shape_77" d="M880.569 445.772C880.569 445.772 875.327 428.714 875.496 427.377C876.511 415.67 884.458 417.008 885.473 411.322C887.671 398.613 888.009 395.268 883.951 392.425C882.598 391.422 879.216 389.248 873.467 397.944C869.747 403.63 869.409 404.131 866.365 410.152C861.969 419.015 863.998 416.005 861.969 410.653C860.447 406.473 854.19 400.954 853.514 397.275C852.161 390.753 856.727 383.06 853.514 378.879C852.161 377.207 849.625 382.391 843.368 387.241C840.663 389.415 839.986 390.585 833.223 393.93C827.474 396.773 821.217 396.271 815.975 396.773C814.791 396.94 828.15 393.93 836.605 385.569C842.185 380.05 841.677 380.552 841.677 380.552C841.677 380.552 834.575 385.401 824.768 390.585C814.622 396.104 801.771 401.79 801.095 402.292C800.757 402.459 811.41 388.746 811.24 388.913C807.351 391.087 794.331 403.964 794.331 403.964C794.331 403.964 782.494 390.585 794.331 365.501C798.897 355.968 831.532 337.071 865.351 348.777C882.091 354.463 889.531 362.825 894.097 373.862C895.788 377.876 899.508 396.104 894.097 412.326C887.333 432.393 881.415 445.605 880.569 445.772Z" fill="#181F2A"/>
<path id="Shape_78" d="M883.613 416.005C880.4 421.021 880.062 426.707 875.496 426.206C872.96 425.871 871.945 419.516 871.945 419.516L872.453 399.95C872.453 399.95 878.202 389.749 882.598 390.92C889.7 392.927 888.517 408.646 883.613 416.005Z" fill="#F4D6D3"/>
<path id="Shape_79" d="M814.793 674.713C814.793 674.713 850.134 681.904 858.081 682.406C860.956 682.74 863.492 679.228 866.874 679.061C876.851 678.726 890.885 675.884 890.885 675.884C890.885 675.884 891.224 673.041 886.996 664.679C883.614 657.822 879.387 655.147 879.387 655.147C879.387 655.147 864.507 657.822 861.463 657.321C842.186 653.976 816.822 646.785 816.822 646.785L814.793 674.713Z" fill="#F4D6D3"/>
<path id="Shape_80" d="M795.686 999.644C795.686 999.644 774.042 995.463 751.215 995.798C718.918 996.299 703.868 1014.03 703.868 1014.03C703.868 1014.03 704.206 899.305 704.714 865.524C699.81 839.77 700.655 771.205 709.787 751.806C715.198 740.267 814.287 718.192 823.249 720.032C833.564 722.206 922.507 753.311 926.565 765.352C936.88 795.788 785.033 794.45 786.555 801.14C791.29 821.542 790.952 887.264 790.952 887.264L795.686 999.644Z" fill="#32415D"/>
<g id="Group_25">
<g id="Group_26">
<path id="Shape_81" d="M738.698 996.132C739.882 1014.69 723.311 1007.84 707.247 1021.55C702.174 1025.9 693.888 1031.25 663.282 1031.75C615.767 1032.59 619.318 1022.55 622.361 1006C623.883 997.804 645.866 987.938 663.62 987.938C677.655 987.938 689.661 987.938 696.932 993.623C701.329 996.968 738.36 990.78 738.698 996.132Z" fill="#EDE7EC"/>
<path id="Shape_82" d="M738.697 990.78C739.881 1009.34 723.309 1002.49 707.245 1016.2C702.173 1020.55 693.887 1025.9 663.281 1026.4C615.765 1027.24 619.993 1013.52 622.529 1001.32C623.713 995.63 656.855 980.747 674.272 982.586C689.49 984.258 682.727 985.931 703.018 989.275C707.584 992.62 738.359 985.429 738.697 990.78Z" fill="#202B3B"/>
</g>
<path id="Shape_83" d="M795.514 1002.99C794.838 1023.06 783.001 1011.02 768.967 1031.42C765.247 1036.77 754.425 1041.12 725.171 1042.62C694.058 1044.13 690.338 1030.42 690.676 1016.37C690.845 1011.18 704.373 997.136 721.958 997.136C735.993 997.136 748.337 994.627 755.608 1000.48C760.174 1003.66 795.684 997.638 795.514 1002.99Z" fill="#EDE7EC"/>
<path id="Shape_84" d="M795.683 1000.48C795.852 1016.03 784.015 1008.17 766.599 1025.9C761.695 1030.92 751.888 1035.1 722.634 1036.1C688.984 1037.27 690.168 1023.06 690.845 1011.18C691.183 1006 704.034 989.276 721.62 989.276C735.655 989.276 747.829 989.109 755.1 994.962C759.666 998.139 795.683 995.296 795.683 1000.48Z" fill="#202B3B"/>
</g>
<path id="Shape_85" d="M765.586 490.925L819.696 477.547C819.696 477.547 812.932 500.959 839.987 499.287C867.042 497.615 878.879 489.253 883.952 482.564C885.981 479.888 882.261 470.857 882.261 470.857C882.261 470.857 954.295 491.929 958.353 492.598C967.654 494.27 996.231 512.331 1002.32 567.852C1008.74 626.885 934.68 621.366 934.68 621.366L938.062 638.089C938.062 638.089 953.957 724.214 944.826 751.807C942.628 758.329 931.129 774.049 931.129 774.049C931.129 774.049 855.206 724.381 812.932 718.361C730.076 706.655 730.076 706.655 730.076 706.655V706.655C730.076 706.655 692.875 556.146 750.367 499.287C753.749 495.942 765.586 490.925 765.586 490.925Z" fill="white"/>
<path id="Shape_86" d="M921.153 567.851C928.762 564.171 914.389 572.868 922.844 597.952C930.791 621.532 936.371 631.399 936.371 631.399L941.444 652.637L917.771 664.845L924.535 633.071C924.535 633.071 924.535 633.071 924.535 618.02C924.535 608.99 918.955 609.993 916.08 602.969C912.698 594.608 863.661 613.003 907.625 577.885C908.64 577.048 917.771 569.523 921.153 567.851Z" fill="#F8F6F8"/>
<path id="Shape_87" opacity="0.840353" d="M897.481 753.479C897.481 753.479 918.28 767.359 917.773 753.479C917.434 743.445 893.93 728.896 905.936 726.722C941.446 720.033 888.35 655.314 880.572 646.451C854.362 616.516 714.859 623.038 714.859 623.038L730.078 706.654C730.078 706.654 803.296 717.023 821.389 721.705C846.753 728.394 897.481 753.479 897.481 753.479Z" fill="#F8F6F8"/>
<path id="Shape_88" d="M817.499 623.874C828.997 625.88 849.965 637.252 861.294 640.095C883.107 645.447 950.914 645.781 950.914 645.781C950.914 645.781 938.739 626.215 941.276 619.86C943.812 613.505 964.78 609.492 973.404 608.154C980.675 607.15 998.599 594.274 1001.81 598.789C1005.02 603.304 1004.01 676.719 1000.97 689.763C992.173 727.39 891.224 669.528 862.478 667.187C856.221 666.685 856.559 673.04 837.452 663.675C816.315 653.306 806.338 654.31 806.338 654.31L775.732 654.812L753.75 639.761C753.75 639.761 774.718 627.385 782.496 626.382C791.12 625.379 812.933 623.037 817.499 623.874Z" fill="#ECCBBD"/>
<path id="Shape_89" d="M813.779 409.148C813.779 409.148 803.295 425.872 799.406 432.394C798.561 433.899 794.333 439.083 796.024 442.428C797.715 445.772 804.31 442.428 806.17 442.428C812.088 442.26 825.785 438.247 825.785 438.247L813.779 409.148Z" fill="#ECCBBD"/>
<g id="Group_27">
<path id="Shape_90" d="M820.711 661.836H630.311C628.789 661.836 627.605 660.665 627.605 659.16V659.16C627.605 657.655 628.789 656.484 630.311 656.484H820.711C822.233 656.484 823.417 657.655 823.417 659.16V659.16C823.586 660.665 822.402 661.836 820.711 661.836Z" fill="#FAAF5D"/>
<path id="Shape_91" d="M769.982 657.484H631.155C628.788 657.484 626.59 655.979 625.744 653.805C619.657 637.584 591.08 572.53 581.103 549.787C579.412 546.108 582.287 541.927 586.345 541.927L718.915 540.422C724.664 540.422 729.737 543.767 731.935 548.951C741.235 570.691 765.585 628.051 775.223 649.457C776.914 653.303 774.209 657.484 769.982 657.484Z" fill="#FAAF5D"/>
<path id="Oval_15" d="M675.015 607.155C678.127 605.883 678.894 600.555 676.728 595.254C674.561 589.953 670.282 586.687 667.17 587.959C664.058 589.231 663.291 594.559 665.458 599.86C667.624 605.161 671.903 608.427 675.015 607.155Z" fill="white"/>
</g>
</g>
<g id="Group_28">
<rect id="Rectangle-path_50" x="180.715" y="662.293" width="629.839" height="33.1647" fill="#826F62"/>
<g id="Group_29">
<g id="Group_30">
<rect id="Rectangle-path_51" x="332.844" y="695.791" width="10.6609" height="357.979" fill="#67564C"/>
<rect id="Rectangle-path_52" x="645.055" y="695.791" width="10.6609" height="357.979" fill="#67564C"/>
<rect id="Rectangle-path_53" x="343.676" y="731.789" width="301.551" height="5.33302" fill="#67564C"/>
<rect id="Rectangle-path_54" x="343.504" y="963.275" width="301.551" height="5.33302" fill="#67564C"/>
</g>
</g>
</g>
</g>
</g>
</g>
</g>
</g>
<defs>
<clipPath id="clip0">
<rect width="1746" height="1262" fill="white"/>
</clipPath>
</defs>
</svg>
