<?xml version="1.0" encoding="UTF-8"?>
<svg width="287px" height="397px" viewBox="0 0 287 397" version="1.1" xmlns="http://www.w3.org/2000/svg" xmlns:xlink="http://www.w3.org/1999/xlink">
    <!-- Generator: Sketch 49.3 (51167) - http://www.bohemiancoding.com/sketch -->
    <title>image8</title>
    <desc>Created with Sketch.</desc>
    <defs></defs>
    <g id="Page-1" stroke="none" stroke-width="1" fill="none" fill-rule="evenodd">
        <g id="image8" transform="translate(158.500000, 183.500000) scale(-1, -1) translate(-158.500000, -183.500000) translate(-28.000000, -32.000000)" fill-rule="nonzero">
            <g id="hero-4" transform="translate(186.920832, 215.482459) rotate(-160.000000) translate(-186.920832, -215.482459) translate(54.920832, 34.482459)">
                <g id="Head/Front/Wavy" transform="translate(78.611706, 0.216636)">
                    <g id="Head" transform="translate(38.857349, 8.708553)" fill="#B28B67">
                        <polygon id="Neck" points="8.99725783e-17 63.6764076 10.2903437 22.0424001 17.7120036 22.0424001 24.4915215 63.6764076"></polygon>
                        <path d="M35.3455243,41.8297346 C31.6407705,42.6260974 23.5016911,43.3206492 15.598653,38.4094531 C7.21522538,33.1997277 0.290424799,22.8978127 1.07835538,13.5329647 C2.60906633,-4.66010432 32.9777306,-0.657860939 38.8850646,8.524438 C44.7923985,17.7067369 42.9802271,40.1886017 35.3455243,41.8297346 Z" id="Shape"></path>
                    </g>
                    <path d="M78.7801253,16.3157032 C78.1633446,14.8030987 77.2299499,13.4392946 76.2027728,12.1539655 C74.2689282,9.73406979 71.949042,7.54884432 69.3876626,5.73516757 C64.7089859,2.42231752 58.7532568,0.511452584 52.8965289,1.1320083 C49.9394609,1.44530442 47.0689004,2.42443031 44.6256581,4.05414369 C42.4182159,5.52660535 40.2949089,7.69417396 37.4365259,7.8499165 C34.3263698,8.01924128 31.4754197,5.63631933 28.9810954,4.16461226 C26.1687337,2.50547082 23.1768729,1.29650387 19.8899064,0.826559645 C14.3834782,0.0395464426 9.21058626,1.65447035 5.41564542,5.57610491 C1.37731349,9.74931208 -1.55824625,15.8693015 1.09375255,21.3987671 C1.58670262,22.426638 2.22087963,23.2931825 3.13102655,24.0113791 C3.96573636,24.6699651 5.24057456,25.3706558 5.57901324,26.4229747 C5.93848565,27.5415445 4.8646547,28.984578 4.4482487,29.9938866 C3.85171102,31.4399384 3.36192396,32.957825 3.53604581,34.5295876 C3.82213716,37.1108098 5.69082448,39.574923 7.66404822,41.271491 C9.67206467,42.9979399 12.1434574,43.9879315 14.7831205,44.4442935 C16.5456899,44.7489876 18.3470058,44.9171051 20.1383583,44.8027128 C21.0276295,44.7459693 21.8123643,44.5315214 22.6739595,44.3609893 C23.5118323,44.1951355 23.9801112,44.3883047 24.6909904,44.7871686 C27.9932974,46.6403848 31.5440564,47.3573741 35.3571842,47.0818063 C38.575356,46.8490979 42.2845801,46.1721006 44.9098517,44.2580664 C47.8253265,42.1323008 47.7672858,39.2009597 47.0812359,36.0690548 C47.8080883,36.3817473 49.8189514,36.5753691 48.6173362,35.3289756 C48.141308,34.8353381 47.2419152,34.6344724 46.6311443,34.344115 C45.9199486,34.0060692 45.1978408,33.569175 44.6455849,33.0177375 C42.4156855,30.7911618 44.6678839,26.2598373 47.4705985,25.513118 C51.6346588,24.4037539 52.5669465,29.5156422 55.5395131,30.837945 C57.2486282,31.5982465 59.0365014,30.5590571 60.317033,29.4979853 C62.0323159,28.0765323 63.2013525,26.1934355 64.2106587,24.2771376 C65.0420474,22.6990366 65.8157117,21.0987513 66.6630735,19.5284978 C67.0587621,18.7952098 68.4286478,16.7222638 67.7407001,15.8931459 C70.72323,15.3768712 74.0451474,16.4527326 76.6138018,17.8636216 C77.6754553,18.4469017 78.4848613,19.0899436 79.0511925,20.1196254 C79.1724927,20.3402608 79.4366013,20.9961302 79.7682395,21.0229928 C80.3856529,21.0730961 80.1549136,20.418132 80.0940262,20.106496 C79.8514259,18.8662899 79.2585257,17.4890546 78.7801253,16.3157032 Z" id="hair" fill="#191847"></path>
                </g>
                <g id="Standing/Skinny-Jeans-Walk" transform="translate(8.690671, 148.718427)">
                    <polygon id="Leg" fill="#1F28CF" points="108.164676 0 157.134673 113.095972 191.459036 196.4538 211.030754 196.4538 163.848516 8.72430129e-14"></polygon>
                    <path d="M96.0617466,0 C95.5294405,38.8055715 95.9142759,91.0509748 94.6740153,93.4699166 C93.8471734,95.0825446 68.1292725,113.456341 17.5203105,148.591305 L27.6082954,163.563345 C87.6927796,129.744665 119.270953,110.582457 122.342817,106.07672 C126.950613,99.3181168 150.099815,37.1245564 162.143906,0 L96.0617466,0 Z" id="Leg" fill="#2B44FF"></path>
                    <g id="Accessories/Shoe/Flat-Pointy" transform="translate(28.048243, 173.884935) rotate(50.000000) translate(-28.048243, -173.884935) translate(-3.451757, 164.384935)" fill="#191847">
                        <path d="M0,18.8012887 L1.02294405,0.0470032217 L22.5047691,0.0470032217 C32.6908402,6.29843171 45.9891128,11.3591119 62.3995871,15.2290438 L62.3995871,18.8012887 L23.5277132,18.8012887 L10.2294405,17.0151663 L10.2294405,18.8012887 L0,18.8012887 Z" id="Shoe"></path>
                    </g>
                    <g id="Accessories/Shoe/Flat-Pointy" transform="translate(189.642758, 193.818473)" fill="#191847">
                        <path d="M0,18.8012887 L1.02294405,0.0470032217 L22.5047691,0.0470032217 C32.6908402,6.29843171 45.9891128,11.3591119 62.3995871,15.2290438 L62.3995871,18.8012887 L23.5277132,18.8012887 L10.2294405,17.0151663 L10.2294405,18.8012887 L0,18.8012887 Z" id="Shoe"></path>
                    </g>
                </g>
                <g id="Body/Trench-Coat" transform="translate(0.402743, 42.406334)">
                    <g id="Right-Arm" transform="translate(194.704592, 73.145417) rotate(-4.000000) translate(-194.704592, -73.145417) translate(130.704592, 12.645417)">
                        <path d="M73.3160124,79.0483289 L104.466527,101.347979 C113.128986,103.825387 120.315431,106.742973 126.025857,110.100737 C127.351952,111.274803 128.900382,113.60032 123.14833,112.946834 C117.396278,112.293349 111.312402,111.832308 110.412328,113.519196 C109.512255,115.206084 112.883757,117.427447 111.133678,119.678931 C109.966959,121.17992 105.12619,117.059998 96.6113692,107.319164 L65.2269927,94.2084952 L73.3160124,79.0483289 Z" id="Arm" fill="#B28B67" transform="translate(96.246316, 99.513937) rotate(1.000000) translate(-96.246316, -99.513937) "></path>
                        <path d="M5.19556202,8.04839084 L15.9926902,3.98124572 C34.3767222,35.7938915 60.0653319,65.9702484 100.347284,90.038417 L92.4577836,104.777733 C57.7219137,90.2792833 25.1296041,79.4454066 9.88371395,54.8708043 C4.7667991,46.6229326 5.87452436,18.3262043 5.19556202,8.04839084 Z" id="Clothes-Back" fill="#69A1AC" transform="translate(52.771423, 54.379489) rotate(5.000000) translate(-52.771423, -54.379489) "></path>
                        <path d="M72.2005094,92.7230694 C69.9562635,93.7403736 65.7455313,86.6299162 67.9897771,85.612612 C74.3449909,82.7318288 81.9457497,82.6669696 90.5760181,85.2110694 C92.9712872,85.917166 94.2587876,88.1884137 93.4517311,90.2840429 C92.6446745,92.3796723 90.0486766,93.5061111 87.6534076,92.8000144 C81.2066102,90.8995756 76.1276559,90.9429156 72.2005094,92.7230694 Z" id="Sinch" fill="#69A1AC" transform="translate(80.521499, 88.192225) rotate(180.000000) translate(-80.521499, -88.192225) "></path>
                    </g>
                    <g id="Left-Arm" transform="translate(65.732936, 83.092752) rotate(2.000000) translate(-65.732936, -83.092752) translate(3.232936, 2.592752)">
                        <path d="M58.9091166,80.6928496 C41.5583371,114.281685 31.4920101,132.620274 28.7101358,135.708615 C26.6701579,137.973328 14.2546396,143.697804 5.86803076,146.728286 C2.50175969,147.94468 3.16952548,150.426167 4.13354183,151.231462 C11.9746351,157.781549 19.3173126,153.124705 27.901868,151.397089 C37.3069857,149.504337 34.1932791,159.206723 41.6233113,157.811747 C40.5330868,153.339602 37.5095283,144.832741 41.0244829,140.269521 C42.586685,138.241423 54.4771035,119.509569 76.6957385,84.0739579 L58.9091166,80.6928496 Z" id="Arm" fill="#B28B67" transform="translate(40.023540, 119.321186) rotate(-4.000000) translate(-40.023540, -119.321186) "></path>
                        <path d="M107.434338,6.42063562 C68.4228498,36.6563078 46.0679936,79.9510049 40.3697692,136.304727 L60.2685498,138.259491 C70.724282,90.1558385 89.1728703,61.8727713 115.614315,53.4102892 L112.844389,5.58688237 L107.434338,6.42063562 Z" id="Clothes-Front" fill="#89C5CC" transform="translate(77.992042, 71.923186) rotate(8.000000) translate(-77.992042, -71.923186) "></path>
                        <path d="M33.3772678,124.206912 C31.1330218,125.224216 26.9222895,118.113758 29.1665354,117.096454 C35.5217492,114.215671 43.1225081,114.150812 51.7527764,116.694912 C54.1480454,117.401009 55.435546,119.672256 54.6284893,121.767886 C53.8214327,123.863515 51.2254349,124.989954 48.8301658,124.283857 C42.3833684,122.383418 37.3044142,122.426758 33.3772678,124.206912 Z" id="Sinch" fill="#89C5CC"></path>
                    </g>
                    <g id="Body" transform="translate(55.298897, 14.958103)">
                        <path d="M42.8697369,101.356163 C74.843116,104.42922 100.009673,104.42922 118.369407,101.356163 C120.644055,100.975433 120.544164,92.3965252 119.489299,90.0535449 C103.062302,53.567243 92.2564929,26.8575592 92.2564929,1.51499582 C89.2423459,2.89247873 83.9673044,3.09891176 76.4313683,2.13429492 C56.1786544,28.2506213 46.8692031,58.2161178 42.8697369,101.356163 Z" id="Clothes-Body" fill="#191847"></path>
                        <path d="M0.0357519192,201.093356 C41.9868733,186.432018 76.9478683,204.783142 107.135779,198.884988 C123.468139,125.420769 76.4313683,39.4007199 79.8367803,4.26325641e-14 L69.8528642,4.81527314e-14 C64.244854,11.749511 49.3135847,29.4181956 41.9868733,47.166329 C35.9509678,61.7876307 43.7722274,76.7702098 40.9289971,92.1678932 C34.6125144,126.375182 1.82727789,167.139536 0.0357519192,201.093356 Z" id="Clothes-Body" fill="#89C5CC"></path>
                        <ellipse id="Button" fill="#5C63AB" cx="84.5675214" cy="78.3018376" rx="4.06807653" ry="3.55917444"></ellipse>
                        <ellipse id="Button" fill="#5C63AB" cx="89.652617" cy="98.7670905" rx="4.06807653" ry="3.55917444"></ellipse>
                        <ellipse id="Button" fill="#5C63AB" cx="90.6696361" cy="119.232344" rx="4.06807653" ry="3.55917444"></ellipse>
                        <polygon id="Shade-Lapel" fill-opacity="0.1" fill="#000000" points="72.4708505 0.889793609 67.2238909 15.0067653 77.7901024 25.5896132 68.2409101 33.9060362 91.3431581 68.5141079 63.0917249 33.9751779 72.4708505 25.5896132 63.0917249 16.2373616"></polygon>
                        <path d="M40.3258516,96.0979158 C42.8538523,96.0983999 44.903063,97.888967 44.9036164,100.097893 L44.9042875,102.776803 C44.9048406,104.984478 42.8570999,106.774543 40.3305306,106.775028 C40.3298625,106.775028 40.3291945,106.775028 40.3285265,106.775028 C37.8005258,106.774543 35.751315,104.983975 35.7507616,102.77505 L35.7500905,100.09614 C35.7495374,97.888465 37.7972782,96.098399 40.3238475,96.0979158 C40.3245156,96.0979158 40.3251836,96.0979158 40.3258516,96.0979158 Z" id="Belt" fill="#89C5CC" transform="translate(40.327189, 101.436472) rotate(10.000000) translate(-40.327189, -101.436472) "></path>
                    </g>
                </g>
            </g>
        </g>
    </g>
</svg>