<?xml version="1.0" encoding="UTF-8"?>
<svg width="357px" height="428px" viewBox="0 0 357 428" version="1.1" xmlns="http://www.w3.org/2000/svg" xmlns:xlink="http://www.w3.org/1999/xlink">
    <!-- Generator: Sketch 49.3 (51167) - http://www.bohemiancoding.com/sketch -->
    <title>image-2</title>
    <desc>Created with Sketch.</desc>
    <defs></defs>
    <g id="Page-1" stroke="none" stroke-width="1" fill="none" fill-rule="evenodd">
        <g id="image-2" transform="translate(-30.000000, -72.000000)" fill-rule="nonzero">
            <g transform="translate(228.500000, 252.259956) scale(-1, 1) translate(-228.500000, -252.259956) " id="hero-2">
                <g transform="translate(228.726553, 252.346386) rotate(-17.000000) translate(-228.726553, -252.346386) translate(54.318367, 42.551032)">
                    <g id="Head/Front/Short-2" transform="translate(119.441100, 49.975489) scale(-1, 1) rotate(12.000000) translate(-119.441100, -49.975489) translate(92.647959, 5.488763)">
                        <g id="Head" transform="translate(4.579516, 7.767678)" fill="#B28B67">
                            <polygon id="Neck" points="1.02526892e-16 80.1947115 11.0199988 28.5625 18.9679047 28.5625 26.2281364 80.1947115"></polygon>
                            <path d="M39.0802526,54.1187503 C30.8956789,56.2394738 -0.486070263,40.0159838 1.15488641,16.506328 C2.79584308,-7.00332789 35.3517364,-1.83150315 41.6845317,10.0341523 C48.0173269,21.8998077 47.2648262,51.9980267 39.0802526,54.1187503 Z" id="Shape"></path>
                        </g>
                        <path d="M11.5935078,50.9492564 C8.30161864,36.2274173 -1.07643671,26.1920331 0.355817268,19.6120006 C1.31065325,15.2253123 3.85557746,12.4973849 7.9905898,11.4282183 C10.129179,2.73134108 17.0265682,-0.9677798 28.6827571,0.330855665 C46.1670409,2.27880896 56.8384741,9.57783583 52.2300093,25.6388802 C47.9937467,25.6388802 42.879672,24.0988219 35.8079699,26.7374379 C33.5641473,27.5746601 31.9592997,30.1709598 30.993427,34.5263368 L27.7977527,34.5263368 C24.6962162,29.357695 21.6380814,27.4583602 18.6233482,28.8283324 C15.608615,30.1983045 14.9233172,33.5259723 16.5674546,38.811336 L14.993262,50.9492564 L11.5935078,50.9492564 Z" id="Hair" fill="#101030"></path>
                    </g>
                    <g id="Bottom/Standing/Jogging" transform="translate(178.452434, 288.152655) scale(-1, 1) translate(-178.452434, -288.152655) translate(8.088496, 156.714602)">
                        <polygon id="Leg" fill="#997659" points="144.413348 0 225.802433 136.111653 286.820831 251.182582 299.963653 251.182582 197.726471 5.57737373e-13"></polygon>
                        <g id="Accessories/Shoe/Flat-Sneaker" transform="translate(276.862463, 238.259498)" fill="#E4E4E4">
                            <path d="M1.9826344,7.21889606 C0.716127422,10.5497052 0.0828739269,13.0347881 0.0828739269,14.6741447 C0.0828739269,16.6341214 0.411507804,19.4942147 1.06877556,23.2544248 C3.3572222,23.2544248 23.9238775,23.2544248 62.7687414,23.2544248 C64.3721049,17.9878995 63.4465505,15.1446719 59.9920785,14.7247421 C56.5376064,14.3048123 53.6679177,13.9256493 51.3830126,13.5872531 L22.6241623,0.848972742 C22.1136096,0.622831448 21.5164011,0.853392498 21.2902598,1.36394521 C21.2870298,1.3712375 21.2838862,1.3785678 21.2808296,1.3859345 L19.4052965,5.90621664 C16.2073588,7.38869016 13.6087025,8.12992687 11.6093274,8.12992687 C9.95454012,8.12992687 7.65748801,7.45351207 4.71817119,6.10068257 L4.71817061,6.10068379 C3.70367738,5.63376021 2.50275176,6.07765311 2.03582816,7.0921463 C2.01666558,7.13378122 1.99892409,7.17605554 1.9826344,7.21889606 Z" id="shoe"></path>
                        </g>
                        <path d="M269.874318,232.756267 L295.220017,225.08658 C284.115375,191.879009 270.505061,155.335294 254.389072,115.455436 C238.273084,75.5755776 220.965111,37.0904323 202.465155,2.84217094e-14 L130.87969,2.84217094e-14 C151.447663,46.9176938 173.252472,89.5484412 196.294119,127.892243 C219.335765,166.236043 243.862498,201.190718 269.874318,232.756267 Z" id="Pant" fill="#DB2721"></path>
                        <path d="M139.064508,2.84217094e-14 C131.382906,47.8305694 116.567201,108.939659 115.168998,110.825504 C114.236862,112.082733 80.6797496,123.330984 14.4976591,144.570256 L17.3366672,156.163535 C96.2586547,144.772776 137.843812,135.935356 142.092138,129.651276 C148.464626,120.225157 180.283324,45.7586014 192.607301,2.84217094e-14 L139.064508,2.84217094e-14 Z" id="Leg" fill="#B28B67"></path>
                        <path d="M37.761782,134.548755 L42.7623856,153.220567 C101.791434,158.399449 137.959835,154.657382 151.26759,141.994366 C164.575346,129.331351 179.742258,81.9998951 196.768328,-1.13686838e-13 L128.507313,-1.13686838e-13 C117.719996,67.1468805 111.689183,102.129697 110.414876,104.948448 C109.140568,107.7672 84.9228702,117.633969 37.761782,134.548755 Z" id="Pant" fill="#FF4133"></path>
                        <g id="Accessories/Shoe/Flat-Sneaker" transform="translate(18.480320, 170.006775) rotate(80.000000) translate(-18.480320, -170.006775) translate(-13.368132, 157.874032)" fill="#E4E4E4">
                            <path d="M1.9826344,7.21889606 C0.716127422,10.5497052 0.0828739269,13.0347881 0.0828739269,14.6741447 C0.0828739269,16.6341214 0.411507804,19.4942147 1.06877556,23.2544248 C3.3572222,23.2544248 23.9238775,23.2544248 62.7687414,23.2544248 C64.3721049,17.9878995 63.4465505,15.1446719 59.9920785,14.7247421 C56.5376064,14.3048123 53.6679177,13.9256493 51.3830126,13.5872531 L22.6241623,0.848972742 C22.1136096,0.622831448 21.5164011,0.853392498 21.2902598,1.36394521 C21.2870298,1.3712375 21.2838862,1.3785678 21.2808296,1.3859345 L19.4052965,5.90621664 C16.2073588,7.38869016 13.6087025,8.12992687 11.6093274,8.12992687 C9.95454012,8.12992687 7.65748801,7.45351207 4.71817119,6.10068257 L4.71817061,6.10068379 C3.70367738,5.63376021 2.50275176,6.07765311 2.03582816,7.0921463 C2.01666558,7.13378122 1.99892409,7.17605554 1.9826344,7.21889606 Z" id="shoe"></path>
                        </g>
                    </g>
                    <g id="Body/Long-Sleeve" transform="translate(168.341814, 159.747788) scale(-1, 1) rotate(21.000000) translate(-168.341814, -159.747788) translate(27.298673, 57.630531)">
                        <path d="M211.059181,71.3300395 L254.253473,65.4480581 C262.894083,60.6500342 270.843026,57.4018559 278.1003,55.7035232 C280.142572,55.643995 283.391436,56.3851666 278.55153,60.4132209 C273.711625,64.4412751 268.800858,68.8971441 269.663183,71.0468463 C270.525508,73.1965485 275.026558,72.3967153 275.772204,75.7031401 C276.269302,77.9074233 268.96437,78.2655973 253.85741,76.7776622 L218.808944,90.6495433 L211.059181,71.3300395 Z" id="Arm" fill="#997659"></path>
                        <path d="M136.099736,10.5686447 L154.893659,10.1765799 C163.131754,51.3371682 190.494417,75.39717 245.837627,61.5995499 L257.976311,114.471369 C206.115008,125.82805 158.279013,108.887841 143.885148,52.949852 C140.159031,38.4692739 136.894085,23.3458046 136.099736,10.5686447 Z" id="Clothes-Back" fill="#AFB9C5" transform="translate(197.038024, 63.992238) rotate(5.000000) translate(-197.038024, -63.992238) "></path>
                        <path d="M87.2714266,85.6470257 C57.396175,136.251542 40.963263,163.448674 37.972691,167.23842 C35.7796728,170.017483 22.4284677,177.038705 13.409365,180.754832 C9.78921946,182.246436 10.5087882,185.292848 11.5461189,186.281818 C19.9835344,194.325886 27.8789144,188.612865 37.11162,186.496138 C47.226842,184.177082 43.8828513,196.085621 51.8739183,194.376685 C50.6988951,188.886483 47.4422244,178.442645 51.2205228,172.842778 C52.8997666,170.353948 72.7212706,142.978189 110.685035,90.7155006 L87.2714266,85.6470257 Z" id="Arm" fill="#B28B67" transform="translate(60.694441, 140.096100) rotate(-12.000000) translate(-60.694441, -140.096100) "></path>
                        <path d="M97.2831167,122.322275 L183.709166,122.322275 C175.722989,86.4452164 160.152712,55.3119754 160.152712,6.51505538 L131.65795,0 C111.16901,31.5016414 101.329232,70.2865402 97.2831167,122.322275 Z" id="Clothes-Body" fill="#C5CFD6"></path>
                        <path d="M97.2831167,122.322275 L122.557206,122.322275 C116.544573,98.404236 116.660819,59.4504162 122.905945,5.46081586 C104.743424,36.9624573 100.869816,70.2865402 97.2831167,122.322275 Z" id="Clothes-Body" fill-opacity="0.1" fill="#000000"></path>
                        <path d="M129.857941,0 C87.9076531,37.8587041 60.4211654,91.3746996 47.3984778,160.547987 L104.866992,160.547987 C106.406825,102.30273 114.245091,50.8889054 137.133795,6.30651209 L131.719143,0 L129.857941,0 Z" id="Clothes-Front" fill="#C5CFD6"></path>
                    </g>
                </g>
            </g>
        </g>
    </g>
</svg>