<svg width="72" height="72" viewBox="0 0 72 72" fill="none" xmlns="http://www.w3.org/2000/svg">
<circle cx="36" cy="36" r="35.5" stroke="#526BE3"/>
<path d="M25.5 52H46.5C47.327 52 48 51.327 48 50.5V29.5C48 29.483 47.992 29.469 47.991 29.453C47.989 29.43 47.983 29.41 47.978 29.388C47.9623 29.3185 47.9316 29.2533 47.888 29.197C47.881 29.188 47.882 29.177 47.875 29.168L39.875 20.168C39.872 20.165 39.868 20.165 39.865 20.162C39.804 20.0982 39.727 20.0519 39.642 20.028C39.623 20.022 39.606 20.02 39.586 20.017C39.557 20.012 39.53 20 39.5 20H25.5C24.673 20 24 20.673 24 21.5V50.5C24 51.327 24.673 52 25.5 52ZM40 21.815L46.387 29H40.5C40.28 29 40 28.58 40 28.25V21.815ZM25 21.5C25 21.3674 25.0527 21.2402 25.1464 21.1464C25.2402 21.0527 25.3674 21 25.5 21H39V28.25C39 29.059 39.655 30 40.5 30H47V50.5C47 50.6326 46.9473 50.7598 46.8536 50.8536C46.7598 50.9473 46.6326 51 46.5 51H25.5C25.22 51 25 50.78 25 50.5V21.5Z" fill="#526BE3"/>
<path d="M29.5 34H42.5C42.6326 34 42.7598 33.9473 42.8536 33.8536C42.9473 33.7598 43 33.6326 43 33.5C43 33.3674 42.9473 33.2402 42.8536 33.1464C42.7598 33.0527 42.6326 33 42.5 33H29.5C29.3674 33 29.2402 33.0527 29.1464 33.1464C29.0527 33.2402 29 33.3674 29 33.5C29 33.6326 29.0527 33.7598 29.1464 33.8536C29.2402 33.9473 29.3674 34 29.5 34Z" fill="#526BE3"/>
<path d="M29.5 38H42.5C42.6326 38 42.7598 37.9473 42.8536 37.8536C42.9473 37.7598 43 37.6326 43 37.5C43 37.3674 42.9473 37.2402 42.8536 37.1464C42.7598 37.0527 42.6326 37 42.5 37H29.5C29.3674 37 29.2402 37.0527 29.1464 37.1464C29.0527 37.2402 29 37.3674 29 37.5C29 37.6326 29.0527 37.7598 29.1464 37.8536C29.2402 37.9473 29.3674 38 29.5 38Z" fill="#526BE3"/>
<path d="M29.5 30H35.5C35.6326 30 35.7598 29.9473 35.8536 29.8536C35.9473 29.7598 36 29.6326 36 29.5C36 29.3674 35.9473 29.2402 35.8536 29.1464C35.7598 29.0527 35.6326 29 35.5 29H29.5C29.3674 29 29.2402 29.0527 29.1464 29.1464C29.0527 29.2402 29 29.3674 29 29.5C29 29.6326 29.0527 29.7598 29.1464 29.8536C29.2402 29.9473 29.3674 30 29.5 30Z" fill="#526BE3"/>
<path d="M29.5 42H42.5C42.6326 42 42.7598 41.9473 42.8536 41.8536C42.9473 41.7598 43 41.6326 43 41.5C43 41.3674 42.9473 41.2402 42.8536 41.1464C42.7598 41.0527 42.6326 41 42.5 41H29.5C29.3674 41 29.2402 41.0527 29.1464 41.1464C29.0527 41.2402 29 41.3674 29 41.5C29 41.6326 29.0527 41.7598 29.1464 41.8536C29.2402 41.9473 29.3674 42 29.5 42Z" fill="#526BE3"/>
<path d="M29.5 46H42.5C42.6326 46 42.7598 45.9473 42.8536 45.8536C42.9473 45.7598 43 45.6326 43 45.5C43 45.3674 42.9473 45.2402 42.8536 45.1464C42.7598 45.0527 42.6326 45 42.5 45H29.5C29.3674 45 29.2402 45.0527 29.1464 45.1464C29.0527 45.2402 29 45.3674 29 45.5C29 45.6326 29.0527 45.7598 29.1464 45.8536C29.2402 45.9473 29.3674 46 29.5 46Z" fill="#526BE3"/>
</svg>
