<svg width="24" height="24" viewBox="0 0 24 24" fill="none" xmlns="http://www.w3.org/2000/svg">
<path d="M6.49147 2.25C6.09922 2.25 5.71147 2.3925 5.38897 2.6475L5.34397 2.67225L5.31997 2.69475L2.97622 5.10975L2.99872 5.13225C2.27647 5.80125 2.05147 6.80025 2.36572 7.66425C2.36722 7.668 2.36422 7.68225 2.36572 7.68675C3.00097 9.50775 4.62847 13.0192 7.80322 16.1947C10.9907 19.3822 14.551 20.9423 16.3112 21.6322H16.3337C16.7752 21.7778 17.2468 21.8068 17.7028 21.7164C18.1588 21.626 18.5837 21.4193 18.9362 21.1163L18.9587 21.0938L18.9827 21.0697L21.3047 18.75C21.9272 18.1275 21.9272 17.052 21.3047 16.4295L18.2582 13.383L18.2342 13.3358C17.6117 12.7133 16.513 12.7133 15.8905 13.3358L15.868 13.3597L14.3905 14.8373C13.2647 14.2963 12.2292 13.5847 11.3207 12.7275C10.0937 11.5552 9.46522 10.2075 9.23572 9.6795L10.7342 8.1795C11.3657 7.548 11.3755 6.5025 10.7117 5.883L10.7342 5.859L10.6645 5.78925L7.66447 2.69475L7.63972 2.67225L7.59322 2.6475C7.28113 2.39433 6.89255 2.25423 6.49072 2.25H6.49147ZM6.49147 3.75C6.54697 3.75 6.60172 3.777 6.65647 3.8205L9.65647 6.89025L9.70297 6.9375L9.72547 6.96C9.72022 6.95625 9.77047 7.03275 9.67897 7.125L7.80397 9L7.45147 9.3285L7.61647 9.7965C7.61647 9.7965 8.47897 12.1012 10.2887 13.8285L10.4515 13.9688C12.1945 15.5603 14.2495 16.4288 14.2495 16.4288L14.7182 16.6403L15.0707 16.2892L16.9457 14.4142C17.0732 14.2867 17.0507 14.2867 17.1782 14.4142L20.2495 17.484C20.377 17.6115 20.377 17.5665 20.2495 17.694L17.9522 19.9913C17.6072 20.2882 17.242 20.3482 16.8047 20.2028C15.1037 19.5352 11.8022 18.0825 8.85847 15.1403C5.89222 12.1725 4.34197 8.805 3.77347 7.17225C3.65872 6.867 3.74122 6.41475 4.00747 6.1875L4.02997 6.165L4.05397 6.14025L6.32797 3.8205C6.3726 3.77914 6.43002 3.75427 6.49072 3.75H6.49147Z" fill="white"/>
</svg>
