<svg width="72" height="72" viewBox="0 0 72 72" fill="none" xmlns="http://www.w3.org/2000/svg">
<circle cx="36" cy="36" r="35.5" fill="#2D3390" fill-opacity="0.02" stroke="#526BE3"/>
<path d="M18.5 46C18.6326 46 18.7598 45.9473 18.8536 45.8536C18.9473 45.7598 19 45.6326 19 45.5V22C19 21.402 19.402 21 20 21H52C52.57 21 53 21.468 53 22.089V45.5C53 45.6326 53.0527 45.7598 53.1464 45.8536C53.2402 45.9473 53.3674 46 53.5 46C53.6326 46 53.7598 45.9473 53.8536 45.8536C53.9473 45.7598 54 45.6326 54 45.5V22.089C54 20.917 53.122 20 52 20H20C18.841 20 18 20.841 18 22V45.5C18 45.6326 18.0527 45.7598 18.1464 45.8536C18.2402 45.9473 18.3674 46 18.5 46Z" fill="#526BE3"/>
<path d="M21.5 23C21.3674 23 21.2402 23.0527 21.1464 23.1464C21.0527 23.2402 21 23.3674 21 23.5V45.5C21 45.6326 21.0527 45.7598 21.1464 45.8536C21.2402 45.9473 21.3674 46 21.5 46H50.5C50.6326 46 50.7598 45.9473 50.8536 45.8536C50.9473 45.7598 51 45.6326 51 45.5V23.5C51 23.3674 50.9473 23.2402 50.8536 23.1464C50.7598 23.0527 50.6326 23 50.5 23H21.5ZM50 45H22V24H50V45Z" fill="#526BE3"/>
<path d="M56.5 48H15.5C15.3674 48 15.2402 48.0527 15.1464 48.1464C15.0527 48.2402 15 48.3674 15 48.5V49.675C15 50.873 16.408 52 17.5 52H54.5C55.645 52 57 50.645 57 49.5V48.5C57 48.3674 56.9473 48.2402 56.8536 48.1464C56.7598 48.0527 56.6326 48 56.5 48ZM56 49.5C56 50.089 55.089 51 54.5 51H17.5C16.869 51 16 50.232 16 49.675V49H56V49.5Z" fill="#526BE3"/>
</svg>
