<svg width="72" height="72" viewBox="0 0 72 72" fill="none" xmlns="http://www.w3.org/2000/svg">
<circle cx="36" cy="36" r="35.5" stroke="#526BE3"/>
<path d="M55.4995 20H45.4995C44.8085 20 43.9255 20.376 43.4525 20.87L42.1225 22.21C42.0291 22.3043 41.9771 22.4318 41.9777 22.5645C41.978 22.6302 41.9913 22.6952 42.0167 22.7557C42.0422 22.8163 42.0793 22.8713 42.126 22.9175C42.1727 22.9637 42.228 23.0003 42.2888 23.0251C42.3497 23.05 42.4148 23.0626 42.4805 23.0623C42.6132 23.0616 42.7401 23.0083 42.8335 22.914L44.1675 21.568C44.4525 21.271 45.0875 21 45.4995 21H55.4995C55.6321 21 55.7593 21.0527 55.8531 21.1464C55.9468 21.2402 55.9995 21.3674 55.9995 21.5V31.549C55.9995 31.96 55.7285 32.595 55.4255 32.886L41.3445 46.858C41.2445 46.9496 41.1135 46.9997 40.9779 46.9982C40.8424 46.9967 40.7124 46.9438 40.6145 46.85L37.9665 44.201C37.8722 44.1099 37.7459 44.0595 37.6148 44.0607C37.4837 44.0618 37.3583 44.1144 37.2656 44.2071C37.1729 44.2998 37.1203 44.4252 37.1192 44.5563C37.118 44.6874 37.1684 44.8137 37.2595 44.908L39.9075 47.557C40.1917 47.8364 40.5735 47.9944 40.9721 47.9976C41.3706 48.0008 41.7548 47.8489 42.0435 47.574L56.1255 33.601C56.6235 33.123 56.9995 32.24 56.9995 31.549V21.5C56.9995 20.673 56.3265 20 55.4995 20Z" fill="#526BE3"/>
<path d="M54.0371 25C54.0371 23.897 53.1401 23 52.0371 23C50.9341 23 50.0371 23.897 50.0371 25C50.0371 26.103 50.9341 27 52.0371 27C53.1401 27 54.0371 26.103 54.0371 25ZM51.0371 25C51.0369 24.8019 51.0955 24.6083 51.2054 24.4435C51.3153 24.2787 51.4716 24.1503 51.6546 24.0744C51.8375 23.9985 52.0389 23.9786 52.2332 24.0172C52.4274 24.0558 52.6059 24.1511 52.7459 24.2912C52.886 24.4312 52.9813 24.6097 53.0199 24.804C53.0585 24.9982 53.0386 25.1996 52.9627 25.3825C52.8868 25.5655 52.7584 25.7218 52.5936 25.8317C52.4288 25.9416 52.2352 26.0002 52.0371 26C51.4851 26 51.0371 25.551 51.0371 25Z" fill="#526BE3"/>
<path d="M31.4611 24C30.7701 24 29.8871 24.376 29.4131 24.87L15.4201 39.001C15.1468 39.2891 14.9962 39.6721 15.0001 40.0692C15.004 40.4664 15.1622 40.8464 15.4411 41.129L25.8691 51.557C26.1541 51.843 26.5361 52 26.9451 52C27.3411 52 27.7151 51.851 28.0041 51.574L42.0851 37.602C42.5841 37.124 42.9611 36.241 42.9611 35.549V25.5C42.9611 24.673 42.2881 24 41.4611 24H31.4611ZM41.9991 25.5V35.549C41.9991 35.961 41.6901 36.595 41.3871 36.886L27.3061 50.858C27.2052 50.9471 27.0748 50.9957 26.9401 50.9942C26.8054 50.9927 26.6761 50.9413 26.5771 50.85L16.1481 40.423C16.0546 40.3266 16.0012 40.1983 15.9988 40.0641C15.9964 39.9298 16.0451 39.7997 16.1351 39.7L30.1291 25.568C30.4141 25.271 31.0491 25 31.4611 25H41.4611C41.7361 25 41.9991 25.224 41.9991 25.5Z" fill="#526BE3"/>
<path d="M38 27C36.897 27 36 27.897 36 29C36 30.103 36.897 31 38 31C39.103 31 40 30.103 40 29C40 27.897 39.103 27 38 27ZM38 30C37.7425 29.9885 37.4994 29.8781 37.3213 29.6918C37.1431 29.5055 37.0437 29.2577 37.0437 29C37.0437 28.7423 37.1431 28.4945 37.3213 28.3082C37.4994 28.1219 37.7425 28.0115 38 28C38.2575 28.0115 38.5006 28.1219 38.6787 28.3082C38.8569 28.4945 38.9563 28.7423 38.9563 29C38.9563 29.2577 38.8569 29.5055 38.6787 29.6918C38.5006 29.8781 38.2575 29.9885 38 30Z" fill="#526BE3"/>
</svg>
