<svg width="36" height="36" viewBox="0 0 36 36" fill="none" xmlns="http://www.w3.org/2000/svg">
<g clip-path="url(#clip0)">
<path d="M7.911 15.75C9.46853 15.75 10.9911 16.2119 12.2861 17.0772C13.5812 17.9425 14.5905 19.1724 15.1866 20.6114C15.7826 22.0503 15.9385 23.6337 15.6347 25.1613C15.3308 26.6889 14.5808 28.0921 13.4795 29.1935C12.3781 30.2948 10.9749 31.0448 9.44734 31.3487C7.91974 31.6525 6.33634 31.4966 4.89737 30.9006C3.4584 30.3045 2.22849 29.2952 1.36318 28.0001C0.497861 26.7051 0.036 25.1825 0.036 23.625L0 22.5C0 18.3228 1.65937 14.3168 4.61307 11.3631C7.56677 8.40937 11.5728 6.75 15.75 6.75V11.25C14.272 11.246 12.8078 11.5351 11.4422 12.1005C10.0766 12.6659 8.83664 13.4964 7.794 14.544C7.38876 14.9485 7.01493 15.3832 6.67575 15.8445C7.0785 15.7815 7.49025 15.7478 7.90875 15.7478L7.911 15.75ZM28.161 15.75C29.7185 15.75 31.2411 16.2119 32.5361 17.0772C33.8312 17.9425 34.8405 19.1724 35.4366 20.6114C36.0326 22.0503 36.1885 23.6337 35.8847 25.1613C35.5808 26.6889 34.8308 28.0921 33.7295 29.1935C32.6281 30.2948 31.2249 31.0448 29.6973 31.3487C28.1697 31.6525 26.5863 31.4966 25.1474 30.9006C23.7084 30.3045 22.4785 29.2952 21.6132 28.0001C20.7479 26.7051 20.286 25.1825 20.286 23.625L20.25 22.5C20.25 18.3228 21.9094 14.3168 24.8631 11.3631C27.8168 8.40937 31.8228 6.75 36 6.75V11.25C34.522 11.246 33.0578 11.5351 31.6922 12.1005C30.3266 12.6659 29.0866 13.4964 28.044 14.544C27.6388 14.9485 27.2649 15.3832 26.9258 15.8445C27.3285 15.7815 27.7402 15.7478 28.161 15.7478V15.75Z" fill="#526BE3"/>
</g>
<defs>
<clipPath id="clip0">
<rect width="36" height="36" fill="white"/>
</clipPath>
</defs>
</svg>
