<svg width="72" height="72" viewBox="0 0 72 72" fill="none" xmlns="http://www.w3.org/2000/svg">
<circle cx="36" cy="36" r="35.5" stroke="#526BE3"/>
<g clip-path="url(#clip0)">
<path d="M21.5 26C21.3674 26 21.2402 26.0527 21.1464 26.1464C21.0527 26.2402 21 26.3674 21 26.5V43.5C21 44.327 21.673 45 22.5 45H50.5C51.327 45 52 44.327 52 43.5V26.5C52 26.3674 51.9473 26.2402 51.8536 26.1464C51.7598 26.0527 51.6326 26 51.5 26C51.3674 26 51.2402 26.0527 51.1464 26.1464C51.0527 26.2402 51 26.3674 51 26.5V43.5C51 43.6326 50.9473 43.7598 50.8536 43.8536C50.7598 43.9473 50.6326 44 50.5 44H22.5C22.3674 44 22.2402 43.9473 22.1464 43.8536C22.0527 43.7598 22 43.6326 22 43.5V26.5C22 26.3674 21.9473 26.2402 21.8536 26.1464C21.7598 26.0527 21.6326 26 21.5 26Z" fill="#526BE3"/>
<path d="M53.5 23H19.5C19.3674 23 19.2402 23.0527 19.1464 23.1464C19.0527 23.2402 19 23.3674 19 23.5C19 23.6326 19.0527 23.7598 19.1464 23.8536C19.2402 23.9473 19.3674 24 19.5 24H53.5C53.6326 24 53.7598 23.9473 53.8536 23.8536C53.9473 23.7598 54 23.6326 54 23.5C54 23.3674 53.9473 23.2402 53.8536 23.1464C53.7598 23.0527 53.6326 23 53.5 23V23Z" fill="#526BE3"/>
<path d="M32.8541 31.146C32.7659 31.0576 32.6478 31.0054 32.5231 30.9997C32.3984 30.9939 32.276 31.0351 32.1801 31.115L26.1801 36.115C26.0781 36.2 26.0141 36.322 26.0021 36.4542C25.99 36.5865 26.0311 36.718 26.1161 36.82C26.2011 36.922 26.3231 36.986 26.4553 36.998C26.5875 37.01 26.7191 36.969 26.8211 36.884L32.4701 32.176L38.1471 37.853C38.2409 37.9464 38.3679 37.9989 38.5004 37.9991C38.6328 37.9993 38.7599 37.9471 38.8541 37.854L46.0001 30.707V34.5C46.0001 34.6326 46.0527 34.7598 46.1465 34.8536C46.2403 34.9473 46.3675 35 46.5001 35C46.6327 35 46.7598 34.9473 46.8536 34.8536C46.9474 34.7598 47.0001 34.6326 47.0001 34.5V29.5C46.9995 29.4012 46.9699 29.3047 46.915 29.2226C46.8601 29.1404 46.7822 29.0762 46.6911 29.038C46.6305 29.013 46.5656 29.0001 46.5001 29H41.5001C41.3675 29 41.2403 29.0527 41.1465 29.1464C41.0527 29.2402 41.0001 29.3674 41.0001 29.5C41.0001 29.6326 41.0527 29.7598 41.1465 29.8536C41.2403 29.9473 41.3675 30 41.5001 30H45.2931L38.5001 36.793L32.8541 31.146Z" fill="#526BE3"/>
<path d="M29.0572 54.732C29.0876 54.7902 29.1292 54.8418 29.1797 54.8839C29.2301 54.926 29.2883 54.9577 29.351 54.9773C29.4136 54.9969 29.4796 55.004 29.545 54.9981C29.6104 54.9922 29.674 54.9735 29.7322 54.943L36.5002 51.398L43.2682 54.943C43.3857 55.0045 43.5228 55.0169 43.6494 54.9773C43.7759 54.9377 43.8816 54.8495 43.9432 54.732C44.0047 54.6145 44.017 54.4774 43.9775 54.3508C43.9379 54.2242 43.8497 54.1185 43.7322 54.057L36.8392 50.447C36.8898 50.4008 36.9302 50.3446 36.9579 50.2819C36.9857 50.2193 37 50.1515 37.0002 50.083V47.5C37.0002 47.3674 36.9475 47.2402 36.8537 47.1464C36.7599 47.0527 36.6328 47 36.5002 47C36.3676 47 36.2404 47.0527 36.1466 47.1464C36.0528 47.2402 36.0002 47.3674 36.0002 47.5V50.083C36.0002 50.227 36.0632 50.355 36.1612 50.446L29.2682 54.056C29.1506 54.1177 29.0623 54.2236 29.0228 54.3503C28.9832 54.4771 28.9956 54.6144 29.0572 54.732Z" fill="#526BE3"/>
</g>
<defs>
<clipPath id="clip0">
<rect width="31" height="32" fill="white" transform="translate(21 23)"/>
</clipPath>
</defs>
</svg>
