<svg width="72" height="72" viewBox="0 0 72 72" fill="none" xmlns="http://www.w3.org/2000/svg">
<circle cx="36" cy="36" r="35.5" stroke="#526BE3"/>
<path d="M49 37.518C49 37.3854 48.9473 37.2582 48.8536 37.1644C48.7598 37.0707 48.6326 37.018 48.5 37.018H35V23.5C35 23.3674 34.9473 23.2402 34.8536 23.1464C34.7598 23.0527 34.6326 23 34.5 23C26.505 23 20 29.495 20 37.479C20 45.757 26.243 52 34.521 52C42.234 52 49 45.232 49 37.518ZM21 37.479C21 30.213 26.787 24.273 34 24.009V37.518C34 37.794 34.224 38.018 34.5 38H47.99C47.707 44.99 41.535 51 34.521 51C26.813 51 21 45.188 21 37.479Z" fill="#526BE3"/>
<path d="M37.5 35H51.499C51.775 35.018 52 34.776 52 34.5C52 26.505 45.495 20 37.5 20C37.3674 20 37.2402 20.0527 37.1464 20.1464C37.0527 20.2402 37 20.3674 37 20.5V34.518C37 34.794 37.224 35.018 37.5 35ZM38 21.009C45.063 21.268 50.759 26.979 50.994 34.018H38V21.009Z" fill="#526BE3"/>
</svg>
