<svg width="72" height="72" viewBox="0 0 72 72" fill="none" xmlns="http://www.w3.org/2000/svg">
<circle cx="36" cy="36" r="35.5" fill="#2D3390" fill-opacity="0.02" stroke="#526BE3"/>
<path d="M54 20C52.346 20 51 21.346 51 23C51 23.888 51.396 24.679 52.011 25.229L43.211 39.26C42.8301 39.0892 42.4174 39.0007 42 39C41.132 39 40.356 39.376 39.807 39.967L30.734 34.222C30.902 33.848 31 33.436 31 33C31 31.346 29.654 30 28 30C26.346 30 25 31.346 25 33C25 33.904 25.41 34.706 26.044 35.256L19.149 46.231C18.7851 46.0785 18.3945 46 18 46C16.346 46 15 47.346 15 49C15 50.654 16.346 52 18 52C19.654 52 21 50.654 21 49C21 48.112 20.605 47.322 19.99 46.772L26.894 35.782C27.237 35.92 27.609 36 28 36C28.859 36 29.629 35.633 30.176 35.053L39.254 40.801C39.0872 41.1788 39.0007 41.5871 39 42C39 43.654 40.346 45 42 45C43.654 45 45 43.654 45 42C45 41.137 44.629 40.364 44.043 39.816L52.853 25.77C53.207 25.917 53.594 26 54 26C55.654 26 57 24.654 57 23C57 21.346 55.654 20 54 20ZM20 49C20 50.103 19.103 51 18 51C16.897 51 16 50.103 16 49C16 47.897 16.897 47 18 47C19.103 47 20 47.897 20 49ZM28 35C26.897 35 26 34.103 26 33C26 31.897 26.897 31 28 31C29.103 31 30 31.897 30 33C30 34.103 29.103 35 28 35ZM42 44C40.897 44 40 43.103 40 42C40 40.897 40.897 40 42 40C43.103 40 44 40.897 44 42C44 43.103 43.103 44 42 44ZM54 25C52.897 25 52 24.103 52 23C52 21.897 52.897 21 54 21C55.103 21 56 21.897 56 23C56 24.103 55.103 25 54 25Z" fill="#526BE3"/>
</svg>
